<svg width="60" height="45" viewBox="0 0 60 45" fill="none" xmlns="http://www.w3.org/2000/svg">
<path d="M9.6402 5.42131C9.6402 4.07613 8.54971 2.98565 7.20453 2.98565H5.476C4.13082 2.98565 3.04034 4.07613 3.04034 5.42131V22.8638C3.04034 24.209 4.13082 25.2995 5.476 25.2995H7.20453C8.54971 25.2995 9.6402 24.209 9.6402 22.8638V5.42131ZM12.6258 22.8638C12.6258 25.8579 10.1986 28.2851 7.20453 28.2851H5.476C2.48189 28.2851 0.0546875 25.8579 0.0546875 22.8638V5.42131C0.0546877 2.4272 2.48189 0 5.476 0H7.20453C10.1986 0 12.6258 2.4272 12.6258 5.42131V22.8638Z" fill="currentColor"/>
<path fill-rule="evenodd" clip-rule="evenodd" d="M54.3452 0C57.3393 0 59.7665 2.4272 59.7665 5.42131V28.0494C59.7665 28.1796 59.6609 28.2851 59.5308 28.2851H57.0165C56.8864 28.2851 56.7808 28.1796 56.7808 28.0494V22.8245C56.7808 22.7594 56.7281 22.7067 56.663 22.7067H50.2988C50.2337 22.7067 50.181 22.7594 50.181 22.8245V28.0494C50.181 28.1796 50.0754 28.2851 49.9453 28.2851H47.431C47.3008 28.2851 47.1953 28.1796 47.1953 28.0494V5.42131C47.1953 2.4272 49.6225 0 52.6166 0H54.3452ZM52.6166 2.98565C51.2714 2.98565 50.181 4.07613 50.181 5.42131V19.6031C50.181 19.6682 50.2337 19.721 50.2988 19.721H56.663C56.7281 19.721 56.7808 19.6682 56.7808 19.6031V5.42131C56.7808 4.07613 55.6903 2.98565 54.3452 2.98565H52.6166Z" fill="currentColor"/>
<path d="M28.3368 22.8638C28.3368 25.8579 25.9096 28.2851 22.9155 28.2851H21.1869C18.1928 28.2851 15.7656 25.8579 15.7656 22.8638V18.8567C15.7656 18.7266 15.8712 18.621 16.0013 18.621H18.5156C18.6457 18.621 18.7513 18.7266 18.7513 18.8567V22.8638C18.7513 24.209 19.8418 25.2995 21.1869 25.2995H22.9155C24.2606 25.2995 25.3511 24.209 25.3511 22.8638V18.071C25.3511 16.7469 24.2945 15.6695 22.9784 15.6361L21.1869 15.6354C18.2396 15.6354 15.8417 13.2834 15.7675 10.354L15.7656 5.42131C15.7656 2.4272 18.1928 0 21.1869 0H22.9155C25.9096 0 28.3368 2.4272 28.3368 5.42131V9.42837C28.3368 9.55855 28.2313 9.66408 28.1011 9.66408H25.5868C25.4567 9.66408 25.3511 9.55855 25.3511 9.42837V5.42131C25.3511 4.07613 24.2607 2.98565 22.9155 2.98565H21.1869C19.8418 2.98565 18.7513 4.07613 18.7513 5.42131V10.2141C18.7513 11.5592 19.8418 12.6497 21.1869 12.6497H22.9155C25.9096 12.6497 28.3368 15.0769 28.3368 18.071V22.8638Z" fill="currentColor"/>
<path fill-rule="evenodd" clip-rule="evenodd" d="M44.0537 17.4253C43.9795 20.3547 41.5815 22.7067 38.6342 22.7067H34.5879C34.5228 22.7067 34.47 22.7594 34.47 22.8245V28.0494C34.47 28.1796 34.3645 28.2851 34.2343 28.2851H31.7201C31.5899 28.2851 31.4844 28.1796 31.4844 28.0494V5.42131C31.4844 2.4272 33.9116 0 36.9057 0H38.6342C41.6283 6.47928e-07 44.0555 2.4272 44.0555 5.42131L44.0537 17.4253ZM41.0699 5.42131C41.0699 4.07613 39.9794 2.98565 38.6342 2.98565H36.9057C35.5605 2.98565 34.47 4.07613 34.47 5.42131V19.6031C34.47 19.6682 34.5228 19.721 34.5879 19.721L38.6971 19.7202C40.0132 19.6869 41.0699 18.6095 41.0699 17.2853V5.42131Z" fill="currentColor"/>
<path d="M53.4726 35.3066H53.7422V36.2441H53.2617C52.0078 36.2441 51.668 37.2871 51.668 38.2363V41.2832H50.707V35.3066H51.5391L51.668 36.209C51.9492 35.752 52.4062 35.3066 53.4726 35.3066Z" fill="currentColor"/>
<path d="M48.6992 38.2949V35.3066H49.6601V41.2832H48.8281L48.6992 40.4863C48.3476 40.9316 47.7734 41.3535 46.7891 41.3535C45.4766 41.3535 44.4336 40.6152 44.4336 38.6347V35.3066H45.3945V38.5762C45.3945 39.8183 45.957 40.4746 46.9531 40.4746C48.043 40.4746 48.6992 39.6426 48.6992 38.2949Z" fill="currentColor"/>
<path d="M41.0859 39.7245V36.1854H40.0078V35.3065H41.0859V33.8115H42.0469V35.3065H43.5937V36.1854H42.0469V39.7128C42.0469 40.2167 42.2226 40.4042 42.7383 40.4042H43.6875V41.2831H42.6445C41.4961 41.2831 41.0859 40.7792 41.0859 39.7245Z" fill="currentColor"/>
<path d="M30.4023 41.3545C28.6094 41.3545 27.4375 40.124 27.4375 38.2959C27.4375 36.4795 28.5859 35.2373 30.2734 35.2373C31.9609 35.2373 33.0625 36.3037 33.1093 38.0732C33.1093 38.2021 33.0976 38.3428 33.0859 38.4834H28.4453V38.5654C28.4805 39.7021 29.1953 40.499 30.332 40.499C31.1758 40.499 31.832 40.0537 32.0312 39.2803H33.0039C32.7695 40.4756 31.7851 41.3545 30.4023 41.3545ZM28.5039 37.6865H32.0781C31.9844 36.6553 31.2812 36.0811 30.2851 36.0811C29.4062 36.0811 28.5976 36.7139 28.5039 37.6865Z" fill="currentColor"/>
<path d="M57.0039 41.3545C55.2109 41.3545 54.0391 40.124 54.0391 38.2959C54.0391 36.4795 55.1875 35.2373 56.875 35.2373C58.5625 35.2373 59.664 36.3037 59.7109 38.0732C59.7109 38.2021 59.6992 38.3428 59.6875 38.4834H55.0469V38.5654C55.082 39.7021 55.7969 40.499 56.9336 40.499C57.7773 40.499 58.4336 40.0537 58.6328 39.2803H59.6054C59.3711 40.4756 58.3867 41.3545 57.0039 41.3545ZM55.1055 37.6865H58.6797C58.5859 36.6553 57.8828 36.0811 56.8867 36.0811C56.0078 36.0811 55.1992 36.7139 55.1055 37.6865Z" fill="currentColor"/>
<path d="M24.3867 39.7243V36.1853H23.3086V35.3064H24.3867V33.8115H25.3476V35.3064H26.8945V36.1853H25.3476V39.7126C25.3476 40.2165 25.5234 40.404 26.039 40.404H26.9883V41.2829H25.9453C24.7969 41.2829 24.3867 40.779 24.3867 39.7243Z" fill="currentColor"/>
<path d="M18.5142 35.2484C19.8501 35.2484 20.7092 35.9649 20.7092 37.9453V41.2734H19.7483V38.0039C19.7483 36.7617 19.3814 36.1273 18.3501 36.1273C17.2368 36.1273 16.6133 36.9375 16.6133 38.2852V41.2734H15.6523V33.8115H16.6133V36.2813C16.9648 35.7188 17.5064 35.2484 18.5142 35.2484Z" fill="currentColor"/>
<path d="M12.2461 41.3545C10.5 41.3545 9.35156 40.1709 9.35156 38.3076C9.35156 36.4795 10.5352 35.2373 12.2695 35.2373C13.7344 35.2373 14.6601 36.0576 14.9062 37.3701H13.8984C13.7226 36.5732 13.1367 36.0928 12.2578 36.0928C11.1094 36.0928 10.3359 37.0068 10.3359 38.3076C10.3359 39.6084 11.1094 40.499 12.2578 40.499C13.1133 40.499 13.6992 40.0068 13.8867 39.2451H14.9062C14.6718 40.5342 13.6992 41.3545 12.2461 41.3545Z" fill="currentColor"/>
<path d="M36.75 41.3545C35.0039 41.3545 33.8555 40.1709 33.8555 38.3076C33.8555 36.4795 35.0391 35.2373 36.7734 35.2373C38.2383 35.2373 39.164 36.0576 39.4101 37.3701H38.4023C38.2265 36.5732 37.6406 36.0928 36.7617 36.0928C35.6133 36.0928 34.8398 37.0068 34.8398 38.3076C34.8398 39.6084 35.6133 40.499 36.7617 40.499C37.6172 40.499 38.2031 40.0068 38.3906 39.2451H39.4101C39.1758 40.5342 38.2031 41.3545 36.75 41.3545Z" fill="currentColor"/>
<path d="M8.78124 35.3066H9.05077V36.2441H8.5703C7.3164 36.2441 6.97656 37.2871 6.97656 38.2363V41.2832H6.01562V35.3066H6.84765L6.97656 36.209C7.25781 35.752 7.71484 35.3066 8.78124 35.3066Z" fill="currentColor"/>
<path d="M5.12107 41.2842H4.20701V40.3584C3.83201 40.8974 3.23436 41.3545 2.20311 41.3545C0.890621 41.3545 0 40.6982 0 39.6084C0 38.4131 0.832027 37.7451 2.40233 37.7451H4.16014V37.335C4.16014 36.5615 3.60936 36.0928 2.67186 36.0928C1.82812 36.0928 1.26562 36.4912 1.14843 37.1006H0.187499C0.328123 35.9287 1.27734 35.2373 2.71874 35.2373C4.24217 35.2373 5.12107 35.999 5.12107 37.3935V41.2842ZM4.16014 38.8467V38.5537H2.30858C1.45312 38.5537 0.972651 38.8701 0.972651 39.5498C0.972651 40.1357 1.47656 40.5342 2.27343 40.5342C3.46873 40.5342 4.16014 39.8428 4.16014 38.8467Z" fill="currentColor"/>
<path d="M21.6055 41.2812V35.3047H22.5664V41.2812H21.6055Z" fill="currentColor"/>
<path d="M21.6055 33.8223H22.5665V34.6218H21.6055V33.8223Z" fill="currentColor"/>
</svg>