<svg width="60" height="45" viewBox="0 0 60 45" fill="none" xmlns="http://www.w3.org/2000/svg">
<path d="M9.58551 5.42131C9.58551 4.07613 8.49503 2.98565 7.14985 2.98565H5.42131C4.07613 2.98565 2.98565 4.07613 2.98565 5.42131V22.8638C2.98565 24.209 4.07613 25.2995 5.42131 25.2995H7.14985C8.49502 25.2995 9.58551 24.209 9.58551 22.8638V5.42131ZM12.5712 22.8638C12.5712 25.8579 10.144 28.2851 7.14985 28.2851H5.42131C2.4272 28.2851 0 25.8579 0 22.8638V5.42131C1.92365e-07 2.4272 2.4272 0 5.42131 0H7.14985C10.144 0 12.5712 2.4272 12.5712 5.42131V22.8638Z" fill="#ffffff"/>
<path fill-rule="evenodd" clip-rule="evenodd" d="M54.2905 0C57.2846 0 59.7118 2.4272 59.7118 5.42131V28.0494C59.7118 28.1796 59.6063 28.2851 59.4761 28.2851H56.9618C56.8317 28.2851 56.7261 28.1796 56.7261 28.0494V22.8245C56.7261 22.7594 56.6734 22.7067 56.6083 22.7067H50.2441C50.179 22.7067 50.1263 22.7594 50.1263 22.8245V28.0494C50.1263 28.1796 50.0207 28.2851 49.8906 28.2851H47.3763C47.2462 28.2851 47.1406 28.1796 47.1406 28.0494V5.42131C47.1406 2.4272 49.5678 0 52.5619 0H54.2905ZM52.5619 2.98565C51.2168 2.98565 50.1263 4.07613 50.1263 5.42131V19.6031C50.1263 19.6682 50.179 19.721 50.2441 19.721H56.6083C56.6734 19.721 56.7261 19.6682 56.7261 19.6031V5.42131C56.7261 4.07613 55.6356 2.98565 54.2905 2.98565H52.5619Z" fill="#ffffff"/>
<path d="M28.2821 22.8638C28.2821 25.8579 25.8549 28.2851 22.8608 28.2851H21.1322C18.1381 28.2851 15.7109 25.8579 15.7109 22.8638V18.8567C15.7109 18.7266 15.8165 18.621 15.9466 18.621H18.4609C18.5911 18.621 18.6966 18.7266 18.6966 18.8567V22.8638C18.6966 24.209 19.7871 25.2995 21.1322 25.2995H22.8608C24.206 25.2995 25.2964 24.209 25.2964 22.8638V18.071C25.2964 16.7469 24.2398 15.6695 22.9237 15.6361L21.1322 15.6354C18.1849 15.6354 15.787 13.2834 15.7128 10.354L15.7109 5.42131C15.7109 2.4272 18.1381 0 21.1322 0H22.8608C25.8549 0 28.2821 2.4272 28.2821 5.42131V9.42837C28.2821 9.55855 28.1766 9.66408 28.0464 9.66408H25.5322C25.402 9.66408 25.2964 9.55855 25.2964 9.42837V5.42131C25.2964 4.07613 24.206 2.98565 22.8608 2.98565H21.1322C19.7871 2.98565 18.6966 4.07613 18.6966 5.42131V10.2141C18.6966 11.5592 19.7871 12.6497 21.1322 12.6497H22.8608C25.8549 12.6497 28.2821 15.0769 28.2821 18.071V22.8638Z" fill="#ffffff"/>
<path fill-rule="evenodd" clip-rule="evenodd" d="M43.999 17.4253C43.9248 20.3547 41.5268 22.7067 38.5795 22.7067H34.5332C34.4681 22.7067 34.4153 22.7594 34.4153 22.8245V28.0494C34.4153 28.1796 34.3098 28.2851 34.1796 28.2851H31.6654C31.5352 28.2851 31.4297 28.1796 31.4297 28.0494V5.42131C31.4297 2.4272 33.8569 0 36.851 0H38.5795C41.5736 6.47928e-07 44.0008 2.4272 44.0008 5.42131L43.999 17.4253ZM41.0152 5.42131C41.0152 4.07613 39.9247 2.98565 38.5795 2.98565H36.851C35.5058 2.98565 34.4153 4.07613 34.4153 5.42131V19.6031C34.4153 19.6682 34.4681 19.721 34.5332 19.721L38.6425 19.7202C39.9586 19.6869 41.0152 18.6095 41.0152 17.2853V5.42131Z" fill="#ffffff"/>
<path d="M58.7539 41.1717V33.7148H59.7148L59.7148 41.1717H58.7539Z" fill="#ffffff"/>
<path d="M57.75 41.1718H56.8359V40.2461C56.4609 40.7851 55.8633 41.2422 54.832 41.2422C53.5195 41.2422 52.6289 40.5859 52.6289 39.4961C52.6289 38.3008 53.4609 37.6328 55.0312 37.6328H56.789V37.2226C56.789 36.4492 56.2383 35.9805 55.3008 35.9805C54.457 35.9805 53.8945 36.3789 53.7773 36.9883H52.8164C52.957 35.8164 53.9062 35.125 55.3476 35.125C56.8711 35.125 57.75 35.8867 57.75 37.2812V41.1718ZM56.789 38.7344V38.4414H54.9375C54.082 38.4414 53.6016 38.7578 53.6016 39.4375C53.6016 40.0234 54.1055 40.4218 54.9023 40.4218C56.0976 40.4218 56.789 39.7304 56.789 38.7344Z" fill="#ffffff"/>
<path d="M49.5781 39.6128V36.0738H48.5V35.1949H49.5781V33.7148H50.5391V35.1949H52.0859V36.0738H50.5391V39.6011C50.5391 40.105 50.7148 40.2925 51.2305 40.2925H52.1797V41.1714H51.1367C49.9883 41.1714 49.5781 40.6675 49.5781 39.6128Z" fill="#ffffff"/>
<path d="M46.9414 41.1718V35.1953H47.9023V41.1718H46.9414Z" fill="#ffffff"/>
<path d="M43.4765 35.125C45.1289 35.125 46.3476 36.2383 46.3476 38.1836C46.3476 40.0117 45.1289 41.2422 43.4765 41.2422C42.4687 41.2422 41.7891 40.832 41.4258 40.2578V43.4177H40.4648L40.4648 35.1953H41.4258V36.1562C41.8242 35.6055 42.4687 35.125 43.4765 35.125ZM43.3828 40.3867C44.5664 40.3867 45.3633 39.4844 45.3633 38.1836C45.3633 36.8828 44.5664 35.9805 43.3828 35.9805C42.2109 35.9805 41.4141 36.8828 41.4141 38.1601C41.4141 39.4726 42.2109 40.3867 43.3828 40.3867Z" fill="#ffffff"/>
<path d="M39.5351 41.1718H38.6211V40.2461C38.2461 40.7851 37.6484 41.2422 36.6172 41.2422C35.3047 41.2422 34.4141 40.5859 34.4141 39.4961C34.4141 38.3008 35.2461 37.6328 36.8164 37.6328H38.5742V37.2226C38.5742 36.4492 38.0234 35.9805 37.0859 35.9805C36.2422 35.9805 35.6797 36.3789 35.5625 36.9883H34.6016C34.7422 35.8164 35.6914 35.125 37.1328 35.125C38.6562 35.125 39.5351 35.8867 39.5351 37.2812V41.1718ZM38.5742 38.7344V38.4414H36.7226C35.8672 38.4414 35.3867 38.7578 35.3867 39.4375C35.3867 40.0234 35.8906 40.4218 36.6875 40.4218C37.8828 40.4218 38.5742 39.7304 38.5742 38.7344Z" fill="#ffffff"/>
<path d="M31.125 41.2422C29.3789 41.2422 28.2305 40.0586 28.2305 38.1953C28.2305 36.3672 29.4141 35.125 31.1484 35.125C32.6133 35.125 33.539 35.9453 33.7851 37.2578H32.7773C32.6015 36.4609 32.0156 35.9805 31.1367 35.9805C29.9883 35.9805 29.2148 36.8945 29.2148 38.1953C29.2148 39.4961 29.9883 40.3867 31.1367 40.3867C31.9922 40.3867 32.5781 39.8945 32.7656 39.1328H33.7851C33.5508 40.4218 32.5781 41.2422 31.125 41.2422Z" fill="#ffffff"/>
<path d="M46.9414 33.7139H47.9024V34.5134H46.9414V33.7139Z" fill="#ffffff"/>
</svg>