<svg width="142" height="67" viewBox="0 0 142 67" fill="none" xmlns="http://www.w3.org/2000/svg">
<path d="M22.6988 12.8378C22.6988 9.65242 20.1165 7.07012 16.9311 7.07012H12.8378C9.65242 7.07012 7.07012 9.65242 7.07012 12.8378V54.1422C7.07012 57.3276 9.65242 59.9099 12.8378 59.9099H16.9311C20.1165 59.9099 22.6988 57.3276 22.6988 54.1422V12.8378ZM29.7689 54.1422C29.7689 61.2324 24.0212 66.9801 16.9311 66.9801H12.8378C5.7477 66.9801 0 61.2324 0 54.1422V12.8378C4.55527e-07 5.7477 5.7477 0 12.8378 0H16.9311C24.0212 0 29.7689 5.7477 29.7689 12.8378V54.1422Z" fill="currentColor"/>
<path fill-rule="evenodd" clip-rule="evenodd" d="M128.564 0C135.654 0 141.402 5.7477 141.402 12.8378V66.4219C141.402 66.7302 141.152 66.9801 140.844 66.9801H134.89C134.582 66.9801 134.332 66.7302 134.332 66.4219V54.0492C134.332 53.8951 134.207 53.7701 134.053 53.7701H118.982C118.828 53.7701 118.703 53.8951 118.703 54.0492V66.4219C118.703 66.7302 118.453 66.9801 118.145 66.9801H112.191C111.883 66.9801 111.633 66.7302 111.633 66.4219V12.8378C111.633 5.7477 117.381 0 124.471 0H128.564ZM124.471 7.07012C121.285 7.07012 118.703 9.65242 118.703 12.8378V46.4209C118.703 46.575 118.828 46.7 118.982 46.7H134.053C134.207 46.7 134.332 46.575 134.332 46.4209V12.8378C134.332 9.65242 131.749 7.07012 128.564 7.07012H124.471Z" fill="currentColor"/>
<path d="M66.9799 54.1422C66.9799 61.2324 61.2322 66.9801 54.142 66.9801H50.0488C42.9586 66.9801 37.2109 61.2324 37.2109 54.1422V44.6534C37.2109 44.3451 37.4608 44.0952 37.7691 44.0952H43.7229C44.0312 44.0952 44.2811 44.3451 44.2811 44.6534V54.1422C44.2811 57.3276 46.8634 59.9099 50.0488 59.9099H54.142C57.3274 59.9099 59.9097 57.3276 59.9097 54.1422V42.7928C59.9097 39.6572 57.4076 37.1059 54.291 37.0269L50.0488 37.0251C43.0694 37.0251 37.3911 31.4556 37.2153 24.5187L37.2109 12.8378C37.2109 5.7477 42.9586 0 50.0488 0H54.142C61.2322 0 66.9799 5.7477 66.9799 12.8378V22.3267C66.9799 22.635 66.73 22.8849 66.4217 22.8849H60.4679C60.1596 22.8849 59.9097 22.635 59.9097 22.3267V12.8378C59.9097 9.65242 57.3274 7.07012 54.142 7.07012H50.0488C46.8634 7.07012 44.2811 9.65242 44.2811 12.8378V24.1872C44.2811 27.3727 46.8634 29.955 50.0488 29.955H54.142C61.2322 29.955 66.9799 35.7027 66.9799 42.7928V54.1422Z" fill="currentColor"/>
<path fill-rule="evenodd" clip-rule="evenodd" d="M104.186 41.2637C104.011 48.2006 98.3323 53.7701 91.3529 53.7701H81.7711C81.6169 53.7701 81.492 53.8951 81.492 54.0492V66.4219C81.492 66.7302 81.2421 66.9801 80.9338 66.9801H74.98C74.6718 66.9801 74.4219 66.7302 74.4219 66.4219V12.8378C74.4219 5.7477 80.1696 0 87.2597 0H91.3529C98.4431 1.53431e-06 104.191 5.7477 104.191 12.8378L104.186 41.2637ZM97.1207 12.8378C97.1207 9.65242 94.5384 7.07012 91.3529 7.07012H87.2597C84.0743 7.07012 81.492 9.65242 81.492 12.8378V46.4209C81.492 46.575 81.617 46.7 81.7711 46.6999L91.5019 46.6982C94.6185 46.6191 97.1207 44.0679 97.1207 40.9323V12.8378Z" fill="currentColor"/>
</svg>