<svg width="60" height="45" viewBox="0 0 60 45" fill="none" xmlns="http://www.w3.org/2000/svg">
<path d="M9.58551 5.42131C9.58551 4.07613 8.49503 2.98565 7.14985 2.98565H5.42131C4.07613 2.98565 2.98565 4.07613 2.98565 5.42131V22.8638C2.98565 24.209 4.07613 25.2995 5.42131 25.2995H7.14985C8.49502 25.2995 9.58551 24.209 9.58551 22.8638V5.42131ZM12.5712 22.8638C12.5712 25.8579 10.144 28.2851 7.14985 28.2851H5.42131C2.4272 28.2851 0 25.8579 0 22.8638V5.42131C1.92365e-07 2.4272 2.4272 0 5.42131 0H7.14985C10.144 0 12.5712 2.4272 12.5712 5.42131V22.8638Z" fill="currentColor"/>
<path fill-rule="evenodd" clip-rule="evenodd" d="M54.2905 0C57.2846 0 59.7118 2.4272 59.7118 5.42131V28.0494C59.7118 28.1796 59.6063 28.2851 59.4761 28.2851H56.9618C56.8317 28.2851 56.7261 28.1796 56.7261 28.0494V22.8245C56.7261 22.7594 56.6734 22.7067 56.6083 22.7067H50.2441C50.179 22.7067 50.1263 22.7594 50.1263 22.8245V28.0494C50.1263 28.1796 50.0207 28.2851 49.8906 28.2851H47.3763C47.2462 28.2851 47.1406 28.1796 47.1406 28.0494V5.42131C47.1406 2.4272 49.5678 0 52.5619 0H54.2905ZM52.5619 2.98565C51.2168 2.98565 50.1263 4.07613 50.1263 5.42131V19.6031C50.1263 19.6682 50.179 19.721 50.2441 19.721H56.6083C56.6734 19.721 56.7261 19.6682 56.7261 19.6031V5.42131C56.7261 4.07613 55.6356 2.98565 54.2905 2.98565H52.5619Z" fill="currentColor"/>
<path d="M28.2821 22.8638C28.2821 25.8579 25.8549 28.2851 22.8608 28.2851H21.1322C18.1381 28.2851 15.7109 25.8579 15.7109 22.8638V18.8567C15.7109 18.7266 15.8165 18.621 15.9466 18.621H18.4609C18.5911 18.621 18.6966 18.7266 18.6966 18.8567V22.8638C18.6966 24.209 19.7871 25.2995 21.1322 25.2995H22.8608C24.206 25.2995 25.2964 24.209 25.2964 22.8638V18.071C25.2964 16.7469 24.2398 15.6695 22.9237 15.6361L21.1322 15.6354C18.1849 15.6354 15.787 13.2834 15.7128 10.354L15.7109 5.42131C15.7109 2.4272 18.1381 0 21.1322 0H22.8608C25.8549 0 28.2821 2.4272 28.2821 5.42131V9.42837C28.2821 9.55855 28.1766 9.66408 28.0464 9.66408H25.5322C25.402 9.66408 25.2964 9.55855 25.2964 9.42837V5.42131C25.2964 4.07613 24.206 2.98565 22.8608 2.98565H21.1322C19.7871 2.98565 18.6966 4.07613 18.6966 5.42131V10.2141C18.6966 11.5592 19.7871 12.6497 21.1322 12.6497H22.8608C25.8549 12.6497 28.2821 15.0769 28.2821 18.071V22.8638Z" fill="currentColor"/>
<path fill-rule="evenodd" clip-rule="evenodd" d="M43.999 17.4253C43.9248 20.3547 41.5268 22.7067 38.5795 22.7067H34.5332C34.4681 22.7067 34.4153 22.7594 34.4153 22.8245V28.0494C34.4153 28.1796 34.3098 28.2851 34.1796 28.2851H31.6654C31.5352 28.2851 31.4297 28.1796 31.4297 28.0494V5.42131C31.4297 2.4272 33.8569 0 36.851 0H38.5795C41.5736 6.47928e-07 44.0008 2.4272 44.0008 5.42131L43.999 17.4253ZM41.0152 5.42131C41.0152 4.07613 39.9247 2.98565 38.5795 2.98565H36.851C35.5058 2.98565 34.4153 4.07613 34.4153 5.42131V19.6031C34.4153 19.6682 34.4681 19.721 34.5332 19.721L38.6425 19.7202C39.9586 19.6869 41.0152 18.6095 41.0152 17.2853V5.42131Z" fill="currentColor"/>
<path d="M57.0078 41.25C55.2148 41.25 54.043 40.0195 54.043 38.1914C54.043 36.375 55.1914 35.1328 56.8789 35.1328C58.5664 35.1328 59.6679 36.1992 59.7148 37.9687C59.7148 38.0976 59.7031 38.2383 59.6914 38.3789H55.0508V38.4609C55.0859 39.5976 55.8008 40.3945 56.9375 40.3945C57.7812 40.3945 58.4375 39.9492 58.6367 39.1758H59.6093C59.375 40.3711 58.3906 41.25 57.0078 41.25ZM55.1094 37.582H58.6836C58.5898 36.5508 57.8867 35.9766 56.8906 35.9766C56.0117 35.9766 55.2031 36.6094 55.1094 37.582Z" fill="currentColor"/>
<path d="M50.8086 41.25C49.0625 41.25 47.9141 40.0664 47.9141 38.2031C47.9141 36.375 49.0977 35.1328 50.832 35.1328C52.2969 35.1328 53.2226 35.9531 53.4687 37.2656H52.4609C52.2851 36.4687 51.6992 35.9883 50.8203 35.9883C49.6719 35.9883 48.8984 36.9023 48.8984 38.2031C48.8984 39.5039 49.6719 40.3945 50.8203 40.3945C51.6758 40.3945 52.2617 39.9023 52.4492 39.1406H53.4687C53.2343 40.4297 52.2617 41.25 50.8086 41.25Z" fill="currentColor"/>
<path d="M46.8984 41.1797H45.9844V40.2539C45.6094 40.7929 45.0117 41.25 43.9805 41.25C42.668 41.25 41.7773 40.5937 41.7773 39.5039C41.7773 38.3086 42.6094 37.6406 44.1797 37.6406H45.9375V37.2305C45.9375 36.457 45.3867 35.9883 44.4492 35.9883C43.6055 35.9883 43.043 36.3867 42.9258 36.9961H41.9648C42.1055 35.8242 43.0547 35.1328 44.4961 35.1328C46.0195 35.1328 46.8984 35.8945 46.8984 37.2891V41.1797ZM45.9375 38.7422V38.4492H44.0859C43.2305 38.4492 42.75 38.7656 42.75 39.4453C42.75 40.0312 43.2539 40.4297 44.0508 40.4297C45.2461 40.4297 45.9375 39.7383 45.9375 38.7422Z" fill="currentColor"/>
<path d="M40.0195 41.1801V33.7148H40.9805V41.1801H40.0195Z" fill="currentColor"/>
<path d="M36.4492 35.0293C38.1015 35.0293 39.3203 36.1426 39.3203 38.0879C39.3203 39.916 38.1015 41.1464 36.4492 41.1464C35.4414 41.1464 34.7617 40.7363 34.3984 40.1621V43.4199H33.4375V35.0996H34.3984V36.0605C34.7969 35.5097 35.4414 35.0293 36.4492 35.0293ZM36.3555 40.291C37.539 40.291 38.3359 39.3886 38.3359 38.0879C38.3359 36.7871 37.539 35.8847 36.3555 35.8847C35.1836 35.8847 34.3867 36.7871 34.3867 38.0644C34.3867 39.3769 35.1836 40.291 36.3555 40.291Z" fill="currentColor"/>
</svg>