<svg width="105" height="45" viewBox="0 0 105 45" fill="none" xmlns="http://www.w3.org/2000/svg">
<path d="M72.6914 29.0723H75.2296V30.8977H72.6914V29.0723Z" fill="currentColor"/>
<path d="M72.6914 41.2156V32.0283H75.2295V41.2156H72.6914Z" fill="currentColor"/>
<path d="M95.6133 38.1604H98.0084C98.0978 38.9647 98.7949 39.5188 100.028 39.5188C101.083 39.5188 101.726 39.1792 101.726 38.5357C101.726 37.785 101.101 37.7314 99.6171 37.5348C97.4722 37.2846 95.8099 36.802 95.8099 34.9073C95.8099 33.0842 97.4007 31.8866 99.7601 31.9045C102.227 31.9045 103.925 32.9948 104.05 34.8716H101.637C101.565 34.1387 100.868 33.6919 99.8494 33.6919C98.8663 33.6919 98.2229 34.0494 98.2229 34.6392C98.2229 35.3363 99.0093 35.4078 100.332 35.5687C102.441 35.7831 104.193 36.2657 104.193 38.3391C104.193 40.1623 102.477 41.3241 100.01 41.3241C97.4543 41.3241 95.7205 40.1265 95.6133 38.1604Z" fill="currentColor"/>
<path d="M94.2837 41.2164H92.1746V39.7149C91.5311 40.7338 90.6017 41.3236 89.1717 41.3236C87.1877 41.3236 85.7578 40.3763 85.7578 38.6246C85.7578 36.6764 87.2235 35.5682 89.9761 35.5682H91.7992V35.1213C91.7992 34.2991 91.2094 33.7629 90.1548 33.7629C89.1717 33.7629 88.5104 34.2097 88.4032 34.889H85.9723C86.151 33.1016 87.7955 31.9219 90.2263 31.9219C92.8002 31.9219 94.2837 33.0658 94.2837 35.2643V41.2164ZM91.7992 37.4271V37.2483H89.9582C88.9036 37.2483 88.2959 37.6773 88.2959 38.4459C88.2959 39.0894 88.8143 39.5005 89.6543 39.5005C90.977 39.5005 91.7814 38.6782 91.7992 37.4271Z" fill="currentColor"/>
<path d="M79.3848 41.2156L76.0781 32.0283H78.7771L80.9935 38.6417L83.1741 32.0283H85.8195L82.5128 41.2156H79.3848Z" fill="currentColor"/>
<path d="M62.7852 38.1604H65.1803C65.2696 38.9647 65.9667 39.5188 67.2 39.5188C68.2546 39.5188 68.8981 39.1792 68.8981 38.5357C68.8981 37.785 68.2725 37.7314 66.7889 37.5348C64.6441 37.2846 62.9818 36.802 62.9818 34.9073C62.9818 33.0842 64.5726 31.8866 66.9319 31.9045C69.3985 31.9045 71.0966 32.9948 71.2217 34.8716H68.8087C68.7372 34.1387 68.0401 33.6919 67.0213 33.6919C66.0382 33.6919 65.3948 34.0494 65.3948 34.6392C65.3948 35.3363 66.1812 35.4078 67.5039 35.5687C69.613 35.7831 71.3647 36.2657 71.3647 38.3391C71.3647 40.1623 69.6488 41.3241 67.1822 41.3241C64.6262 41.3241 62.8924 40.1265 62.7852 38.1604Z" fill="currentColor"/>
<path d="M57.9447 31.9219C59.9287 31.9219 61.6267 32.9764 61.6267 36.1223V41.2164H59.1065V36.3725C59.1065 34.8175 58.5167 33.9953 57.2476 33.9953C55.9428 33.9953 55.1921 34.9247 55.1921 36.5155V41.2164H52.6719V32.0291H55.1027V33.1731C55.6926 32.4581 56.5327 31.9219 57.9447 31.9219Z" fill="currentColor"/>
<path d="M46.4376 41.3236C43.5063 41.3236 41.5938 39.4468 41.5938 36.6227C41.5938 33.7986 43.5063 31.9219 46.4376 31.9219C49.3689 31.9219 51.2815 33.7986 51.2815 36.6227C51.2815 39.4647 49.3689 41.3236 46.4376 41.3236ZM46.4376 39.2681C47.8496 39.2681 48.7255 38.1778 48.7255 36.6227C48.7255 35.0677 47.8496 33.9774 46.4376 33.9774C45.0256 33.9774 44.1676 35.0677 44.1676 36.6227C44.1676 38.1778 45.0256 39.2681 46.4376 39.2681Z" fill="currentColor"/>
<path d="M36.2806 31.921C38.7651 31.9032 40.5525 33.7442 40.5525 36.6398C40.5525 39.4996 38.7651 41.3228 36.2985 41.3228C35.0295 41.3228 34.1179 40.8044 33.528 40.0537V44.7903H31.0078V32.0283H33.4566V33.2973C34.0464 32.5109 34.9758 31.921 36.2806 31.921ZM35.7265 39.2672C37.1028 39.2672 37.9965 38.1769 37.9965 36.604C37.9965 35.049 37.1028 33.9765 35.7265 33.9765C34.3502 33.9765 33.4923 35.049 33.4923 36.604C33.4923 38.1769 34.3502 39.2672 35.7265 39.2672Z" fill="currentColor"/>
<path d="M21.1055 38.1604H23.5006C23.59 38.9647 24.287 39.5188 25.5203 39.5188C26.5749 39.5188 27.2184 39.1792 27.2184 38.5357C27.2184 37.785 26.5928 37.7314 25.1092 37.5348C22.9644 37.2846 21.3021 36.802 21.3021 34.9073C21.3021 33.0842 22.8929 31.8866 25.2522 31.9045C27.7188 31.9045 29.4169 32.9948 29.542 34.8716H27.129C27.0575 34.1387 26.3604 33.6919 25.3416 33.6919C24.3585 33.6919 23.7151 34.0494 23.7151 34.6392C23.7151 35.3363 24.5015 35.4078 25.8242 35.5687C27.9333 35.7831 29.685 36.2657 29.685 38.3391C29.685 40.1623 27.9691 41.3241 25.5025 41.3241C22.9465 41.3241 21.2127 40.1265 21.1055 38.1604Z" fill="currentColor"/>
<path d="M15.7568 41.3236C12.7004 41.3236 10.8594 39.4826 10.8594 36.6406C10.8594 33.7808 12.7361 31.9219 15.5781 31.9219C18.3307 31.9219 20.1896 33.6378 20.2253 36.3368C20.2253 36.6049 20.2075 36.9087 20.1539 37.1947H13.4869V37.3198C13.5405 38.6246 14.3806 39.4111 15.6496 39.4111C16.6684 39.4111 17.3834 38.9642 17.5979 38.1063H20.0824C19.7964 39.8937 18.2056 41.3236 15.7568 41.3236ZM13.5405 35.5503H17.6872C17.5085 34.4242 16.7399 33.7986 15.596 33.7986C14.5057 33.7986 13.6835 34.46 13.5405 35.5503Z" fill="currentColor"/>
<path d="M0.742188 41.2161V28.8486H5.77752C8.49836 28.8486 10.3181 30.4564 10.3181 32.9652C10.3181 34.5553 9.48776 35.8274 8.19801 36.4458L10.6362 41.2161H7.70331L5.61851 37.0642H3.39236V41.2161H0.742188ZM5.5655 31.0571H3.39236V34.8557H5.5655C6.81992 34.8557 7.61497 34.1136 7.61497 32.9652C7.61497 31.7992 6.81992 31.0571 5.5655 31.0571Z" fill="currentColor"/>
<path d="M58.2539 22.5012H60.649C60.7384 23.3055 61.4355 23.8596 62.6688 23.8596C63.7234 23.8596 64.3668 23.52 64.3668 22.8766C64.3668 22.1259 63.7412 22.0722 62.2577 21.8756C60.1128 21.6254 58.4505 21.1428 58.4505 19.2481C58.4505 17.425 60.0413 16.2274 62.4007 16.2453C64.8673 16.2453 66.5653 17.3356 66.6904 19.2124H64.2774C64.2059 18.4796 63.5089 18.0327 62.49 18.0327C61.507 18.0327 60.8635 18.3902 60.8635 18.98C60.8635 19.6771 61.65 19.7486 62.9726 19.9095C65.0818 20.124 66.8334 20.6066 66.8334 22.68C66.8334 24.5031 65.1175 25.6649 62.6509 25.6649C60.0949 25.6649 58.3612 24.4674 58.2539 22.5012Z" fill="currentColor"/>
<path d="M52.9092 25.6654C49.8527 25.6654 48.0117 23.8244 48.0117 20.9824C48.0117 18.1226 49.8885 16.2637 52.7305 16.2637C55.483 16.2637 57.3419 17.9796 57.3777 20.6786C57.3777 20.9467 57.3598 21.2505 57.3062 21.5365H50.6392V21.6616C50.6928 22.9664 51.5329 23.7529 52.8019 23.7529C53.8208 23.7529 54.5357 23.306 54.7502 22.4481H57.2347C56.9487 24.2355 55.3579 25.6654 52.9092 25.6654ZM50.6928 19.8921H54.8396C54.6608 18.766 53.8923 18.1404 52.7483 18.1404C51.658 18.1404 50.8358 18.8018 50.6928 19.8921Z" fill="currentColor"/>
<path d="M44.087 17.5156V13.4131H46.6072V25.5589H44.1585V24.2898C43.5508 25.0763 42.6571 25.6661 41.3344 25.6661C38.8678 25.6661 37.0625 23.8609 37.0625 20.9474C37.0625 18.1054 38.8678 16.2644 41.3165 16.2644C42.5856 16.2644 43.4971 16.7649 44.087 17.5156ZM41.8885 23.6106C43.2648 23.6106 44.1227 22.5382 44.1227 20.9832C44.1227 19.4102 43.2648 18.3199 41.8885 18.3199C40.5122 18.3199 39.6364 19.3924 39.6364 20.9653C39.6364 22.5382 40.5122 23.6106 41.8885 23.6106Z" fill="currentColor"/>
<path d="M35.9907 25.5581H33.8816V24.0567C33.2381 25.0756 32.3087 25.6654 30.8788 25.6654C28.8948 25.6654 27.4648 24.7181 27.4648 22.9664C27.4648 21.0182 28.9305 19.91 31.6831 19.91H33.5063V19.4631C33.5063 18.6409 32.9164 18.1047 31.8618 18.1047C30.8788 18.1047 30.2174 18.5515 30.1102 19.2308H27.6793C27.8581 17.4434 29.5025 16.2637 31.9333 16.2637C34.5072 16.2637 35.9907 17.4076 35.9907 19.6061V25.5581ZM33.5063 21.7689V21.5901H31.6652C30.6107 21.5901 30.003 22.0191 30.003 22.7877C30.003 23.4311 30.5213 23.8422 31.3614 23.8422C32.684 23.8422 33.4884 23.02 33.5063 21.7689Z" fill="currentColor"/>
<path d="M23.5479 17.5154V13.4131H26.0682V25.5587H23.6194V24.2896C23.0117 25.0761 22.118 25.6659 20.7953 25.6659C18.3287 25.6659 16.5234 23.8607 16.5234 20.9472C16.5234 18.1052 18.3287 16.2642 20.7774 16.2642C22.0465 16.2642 22.9581 16.7647 23.5479 17.5154ZM21.3494 23.6104C22.7257 23.6104 23.5837 22.538 23.5837 20.983C23.5837 19.41 22.7257 18.3197 21.3494 18.3197C19.9731 18.3197 19.0973 19.3922 19.0973 20.9651C19.0973 22.538 19.9731 23.6104 21.3494 23.6104Z" fill="currentColor"/>
<path d="M12.6055 25.5583V16.3711H15.1436V25.5583H12.6055Z" fill="currentColor"/>
<path d="M5.90105 25.6654C2.22615 25.6654 0 23.1743 0 19.3757C0 15.5771 2.31448 13.0859 6.06006 13.0859C8.99292 13.0859 11.0601 14.9234 11.3781 17.6089H8.69257C8.37455 16.2308 7.38515 15.3297 5.91872 15.3297C3.90459 15.3297 2.70318 16.9905 2.70318 19.3757C2.70318 21.7432 3.88692 23.4216 5.88338 23.4216C7.38515 23.4216 8.37455 22.5206 8.69257 21.1425H11.3604C11.0601 23.828 8.92225 25.6654 5.90105 25.6654Z" fill="currentColor"/>
<path d="M43.3213 9.79259C41.3239 9.79259 39.9297 8.37161 39.9297 6.29376C39.9297 4.2159 41.3239 2.79492 43.3213 2.79492C45.3187 2.79492 46.7129 4.2159 46.7129 6.29376C46.7129 8.37161 45.3187 9.79259 43.3213 9.79259ZM43.3213 8.81399C44.6752 8.81399 45.5868 7.75495 45.5868 6.29376C45.5868 4.83256 44.6752 3.77352 43.3213 3.77352C41.9673 3.77352 41.0557 4.83256 41.0557 6.29376C41.0557 7.75495 41.9673 8.81399 43.3213 8.81399Z" fill="currentColor"/>
<path d="M36.413 7.92887V3.88041H35.1797V2.87499H36.413V0.958008H37.5122V2.87499H39.2818V3.88041H37.5122V7.91546C37.5122 8.4919 37.7133 8.70638 38.3032 8.70638H39.389V9.7118H38.1959C36.8822 9.7118 36.413 9.13536 36.413 7.92887Z" fill="currentColor"/>
<path d="M33.2819 6.2934V2.875H34.3812V9.7118H33.2819V8.80023C32.8798 9.30964 32.2229 9.79224 31.0968 9.79224C29.5954 9.79224 28.4023 8.94769 28.4023 6.68216V2.875H29.5016V6.61513C29.5016 8.03612 30.1451 8.78682 31.2845 8.78682C32.5312 8.78682 33.2819 7.83503 33.2819 6.2934Z" fill="currentColor"/>
<path d="M24.5692 7.92924V3.88078H23.3359V2.87537H24.5692V1.14744H25.6685V2.87537H27.438V3.88078H25.6685V7.91583C25.6685 8.49227 25.8696 8.70676 26.4594 8.70676H27.5453V9.71217H26.3522C25.0384 9.71217 24.5692 9.13573 24.5692 7.92924Z" fill="currentColor"/>
<path d="M21.4531 9.7118V2.875H22.5524V9.7118H21.4531Z" fill="currentColor"/>
<path d="M17.5224 7.92948V3.88102H16.2891V2.87561H17.5224V1.14941H18.6216V2.87561H20.3911V3.88102H18.6216V7.91608C18.6216 8.49251 18.8227 8.707 19.4125 8.707H20.4984V9.71241H19.3053C17.9916 9.71241 17.5224 9.13598 17.5224 7.92948Z" fill="currentColor"/>
<path d="M10.043 7.45922H11.169C11.2092 8.26355 11.9197 8.85339 13.0592 8.85339C14.0244 8.85339 14.7081 8.43782 14.7081 7.80776C14.7081 6.94981 13.9574 6.88278 12.9386 6.76213C11.4103 6.57446 10.1904 6.26613 10.1904 4.84515C10.1904 3.59844 11.3299 2.7807 12.8715 2.79411C14.4266 2.80751 15.5526 3.53141 15.6599 4.95239H14.5338C14.4534 4.25531 13.8099 3.73249 12.8715 3.73249C11.9197 3.73249 11.2763 4.13466 11.2763 4.76472C11.2763 5.51542 12.0002 5.60926 12.9922 5.72991C14.5472 5.91759 15.7939 6.21251 15.7939 7.72733C15.7939 9.00085 14.574 9.79178 13.0592 9.79178C11.2897 9.79178 10.0698 8.96064 10.043 7.45922Z" fill="currentColor"/>
<path d="M6.16387 2.79492C7.70551 2.79492 8.92541 3.63947 8.92541 5.905V9.71216H7.82616V5.97202C7.82616 4.55104 7.16929 3.80033 5.9762 3.80033C4.68927 3.80033 3.91175 4.75212 3.91175 6.29376V9.71216H2.8125V2.87535H3.91175V3.80033C4.31392 3.27752 5.011 2.79492 6.16387 2.79492Z" fill="currentColor"/>
<path d="M0.203125 9.71195V2.66602H1.30238V9.71195H0.203125Z" fill="currentColor"/>
<path d="M0.203125 1.15039H1.3023V2.06492H0.203125V1.15039Z" fill="currentColor"/>
<path d="M21.4531 1.15039H22.5523V2.06492H21.4531V1.15039Z" fill="currentColor"/>
<path d="M12.6055 13.415H15.1437V15.2405H12.6055V13.415Z" fill="currentColor"/>
</svg>