<?xml version="1.0" encoding="UTF-8"?>
<svg id="Camada_1" data-name="Camada 1" xmlns="http://www.w3.org/2000/svg" viewBox="90 158 820 180">
  <defs>
    <style>
      .cls-1 {
        fill: #ffffff;
      }
    </style>
  </defs>
  <path class="cls-1" d="M107.99,233.12l-16.47-53.94,7.34.05,12.78,41.87,12.82-41.87h6.69l12.82,41.87,12.87-41.87h7.29l-16.47,53.89h-6.39l-13.47-42.92-13.42,42.92h-6.39ZM193.97,234.61c-5.26,0-9.81-1.16-13.67-3.49-3.83-2.33-6.8-5.61-8.93-9.83-2.13-4.23-3.19-9.18-3.19-14.87s1.05-10.98,3.14-15.27c2.1-4.29,5.04-7.6,8.83-9.93,3.83-2.33,8.33-3.49,13.52-3.49s9.86,1.23,13.62,3.69c3.76,2.43,6.6,5.92,8.53,10.48,1.93,4.56,2.81,10,2.64,16.32h-7.49v-2.59c-.13-6.99-1.65-12.26-4.54-15.82-2.86-3.56-7.05-5.34-12.58-5.34s-10.23,1.88-13.32,5.64c-3.06,3.76-4.59,9.12-4.59,16.07s1.53,12.06,4.59,15.82c3.09,3.73,7.47,5.59,13.12,5.59,3.86,0,7.22-.88,10.08-2.64,2.89-1.8,5.17-4.37,6.84-7.73l6.84,2.64c-2.13,4.69-5.27,8.33-9.43,10.93-4.13,2.56-8.8,3.84-14.02,3.84ZM173.36,208.22v-6.14h41.17v6.14h-41.17ZM269.64,234.56c-6.32,0-11.53-1.36-15.62-4.09-4.06-2.73-6.55-6.52-7.49-11.38l7.49-1.25c.8,3.06,2.61,5.51,5.44,7.34,2.86,1.8,6.39,2.69,10.58,2.69s7.32-.85,9.68-2.55c2.36-1.73,3.54-4.08,3.54-7.04,0-1.66-.38-3.01-1.15-4.04-.73-1.06-2.25-2.05-4.54-2.94-2.3-.9-5.72-1.96-10.28-3.19-4.89-1.33-8.72-2.66-11.48-3.99-2.76-1.33-4.72-2.86-5.89-4.59-1.16-1.76-1.75-3.91-1.75-6.44,0-3.06.86-5.74,2.59-8.03,1.73-2.33,4.13-4.13,7.19-5.39,3.06-1.3,6.62-1.95,10.68-1.95s7.68.67,10.88,2c3.23,1.3,5.82,3.13,7.78,5.49,1.96,2.36,3.13,5.11,3.49,8.23l-7.49,1.35c-.5-3.16-2.08-5.66-4.74-7.49-2.63-1.86-5.97-2.83-10.03-2.89-3.83-.1-6.94.63-9.33,2.2-2.4,1.53-3.59,3.58-3.59,6.14,0,1.43.43,2.66,1.3,3.69.86,1,2.43,1.95,4.69,2.84,2.3.9,5.56,1.88,9.78,2.94,4.96,1.26,8.85,2.59,11.68,3.99,2.83,1.4,4.84,3.04,6.04,4.94,1.2,1.9,1.8,4.24,1.8,7.04,0,5.09-1.9,9.1-5.69,12.03-3.76,2.89-8.95,4.34-15.57,4.34ZM331.31,233.12c-3.03.63-6.02.88-8.98.75-2.93-.13-5.56-.77-7.88-1.9-2.3-1.13-4.04-2.89-5.24-5.29-.96-2-1.5-4.01-1.6-6.04-.07-2.06-.1-4.41-.1-7.04v-49.35h7.29v49.05c0,2.26.02,4.16.05,5.69.07,1.5.42,2.83,1.05,3.99,1.2,2.23,3.09,3.56,5.69,3.99,2.63.43,5.87.33,9.73-.3v6.44ZM295.98,185.51v-6.29h35.33v6.29h-35.33ZM357.35,234.61c-4.06,0-7.47-.73-10.23-2.2-2.73-1.46-4.77-3.41-6.14-5.84-1.36-2.43-2.05-5.07-2.05-7.93s.58-5.42,1.75-7.49c1.2-2.1,2.81-3.81,4.84-5.14,2.06-1.33,4.44-2.35,7.14-3.04,2.73-.67,5.74-1.25,9.03-1.75,3.33-.53,6.57-.98,9.73-1.35,3.19-.4,5.99-.78,8.38-1.15l-2.59,1.6c.1-5.32-.93-9.27-3.09-11.83s-5.92-3.84-11.28-3.84c-3.69,0-6.82.83-9.38,2.5-2.53,1.66-4.31,4.29-5.34,7.88l-7.14-2.1c1.23-4.82,3.71-8.57,7.44-11.23,3.73-2.66,8.57-3.99,14.52-3.99,4.92,0,9.1.93,12.53,2.79,3.46,1.83,5.91,4.49,7.34,7.98.67,1.56,1.1,3.31,1.3,5.24.2,1.93.3,3.89.3,5.89v33.48h-6.54v-13.52l1.9.8c-1.83,4.62-4.67,8.15-8.53,10.58-3.86,2.43-8.48,3.64-13.87,3.64ZM358.2,228.28c3.43,0,6.42-.62,8.98-1.85,2.56-1.23,4.62-2.91,6.19-5.04,1.56-2.16,2.58-4.59,3.04-7.29.4-1.73.62-3.63.65-5.69.03-2.1.05-3.66.05-4.69l2.79,1.45c-2.5.33-5.21.67-8.13,1-2.89.33-5.76.72-8.58,1.15-2.79.43-5.32.95-7.59,1.55-1.53.43-3.01,1.05-4.44,1.85-1.43.77-2.61,1.8-3.54,3.09-.9,1.3-1.35,2.91-1.35,4.84,0,1.56.38,3.08,1.15,4.54.8,1.46,2.06,2.68,3.79,3.64,1.76.96,4.09,1.45,6.99,1.45ZM436.31,233.12v-27.5c0-2.99-.28-5.74-.85-8.23-.57-2.53-1.48-4.72-2.74-6.59-1.23-1.9-2.84-3.36-4.84-4.39-1.96-1.03-4.36-1.55-7.19-1.55-2.59,0-4.89.45-6.89,1.35-1.96.9-3.63,2.2-4.99,3.89-1.33,1.66-2.35,3.69-3.04,6.09-.7,2.4-1.05,5.12-1.05,8.18l-5.19-1.15c0-5.52.96-10.16,2.89-13.92,1.93-3.76,4.59-6.6,7.98-8.53s7.29-2.89,11.68-2.89c3.23,0,6.04.5,8.43,1.5,2.43,1,4.47,2.35,6.14,4.04,1.7,1.7,3.06,3.64,4.09,5.84,1.03,2.16,1.78,4.47,2.25,6.94.47,2.43.7,4.86.7,7.29v29.64h-7.39ZM397.34,233.12v-53.89h6.64v13.27h.75v40.62h-7.39ZM477.26,234.61c-5.02,0-9.32-1.25-12.87-3.74-3.56-2.53-6.29-5.94-8.18-10.23-1.9-4.29-2.84-9.13-2.84-14.52s.93-10.18,2.79-14.47c1.9-4.29,4.61-7.68,8.13-10.18,3.53-2.5,7.75-3.74,12.68-3.74s9.32,1.23,12.77,3.69c3.46,2.46,6.07,5.84,7.83,10.13,1.8,4.26,2.69,9.12,2.69,14.57s-.88,10.2-2.64,14.52c-1.76,4.29-4.36,7.7-7.78,10.23-3.43,2.5-7.62,3.74-12.58,3.74ZM478.01,227.78c3.83,0,6.99-.93,9.48-2.79,2.5-1.86,4.36-4.42,5.59-7.68,1.23-3.29,1.85-7.02,1.85-11.18s-.62-7.95-1.85-11.18c-1.23-3.26-3.09-5.81-5.59-7.64-2.46-1.83-5.57-2.74-9.33-2.74s-7.05.95-9.58,2.84c-2.53,1.9-4.41,4.47-5.64,7.73-1.2,3.26-1.8,6.92-1.8,10.98s.62,7.78,1.85,11.08c1.26,3.26,3.14,5.84,5.64,7.73s5.62,2.84,9.38,2.84ZM494.93,233.12v-40.57h-.8v-31.29h7.39v71.86h-6.59ZM540.83,233.12v-57.89c0-1.4.07-2.78.2-4.14.17-1.36.48-2.66.95-3.89.47-1.26,1.2-2.43,2.2-3.49,1.1-1.2,2.3-2.06,3.59-2.59,1.3-.57,2.64-.93,4.04-1.1,1.43-.17,2.83-.25,4.19-.25h6.89v6.19h-6.39c-2.79,0-4.89.68-6.29,2.05-1.36,1.36-2.05,3.51-2.05,6.44v58.68h-7.34ZM531.5,185.51v-6.29h31.39v6.29h-31.39ZM591.43,234.61c-5.36,0-9.93-1.21-13.72-3.64-3.79-2.43-6.7-5.79-8.73-10.08-2.03-4.29-3.04-9.22-3.04-14.77s1.03-10.61,3.09-14.87c2.06-4.26,4.99-7.57,8.78-9.93,3.83-2.4,8.37-3.59,13.62-3.59s9.98,1.21,13.77,3.64c3.83,2.4,6.74,5.74,8.73,10.03,2.03,4.26,3.04,9.17,3.04,14.72s-1.01,10.63-3.04,14.92c-2.03,4.26-4.96,7.59-8.78,9.98-3.83,2.4-8.4,3.59-13.72,3.59ZM591.43,227.58c5.99,0,10.45-1.98,13.37-5.94,2.93-3.99,4.39-9.17,4.39-15.52s-1.48-11.71-4.44-15.57c-2.93-3.86-7.37-5.79-13.32-5.79-4.03,0-7.35.91-9.98,2.74-2.59,1.8-4.54,4.31-5.84,7.54-1.26,3.19-1.9,6.89-1.9,11.08,0,6.49,1.5,11.69,4.49,15.62,2.99,3.89,7.4,5.84,13.22,5.84ZM627.99,233.12v-53.89h6.59v12.97l-1.3-1.7c.6-1.6,1.38-3.06,2.35-4.39.96-1.36,2.01-2.48,3.14-3.34,1.4-1.23,3.03-2.16,4.89-2.79,1.86-.67,3.74-1.05,5.64-1.15,1.9-.13,3.63,0,5.19.4v6.89c-1.96-.5-4.11-.62-6.44-.35s-4.47,1.2-6.44,2.79c-1.8,1.4-3.14,3.08-4.04,5.04-.9,1.93-1.5,3.99-1.8,6.19-.3,2.16-.45,4.31-.45,6.44v26.9h-7.34ZM96.51,316.29v-53.89h10.63v13.12l-1.3-1.7c.67-1.8,1.55-3.43,2.64-4.89,1.13-1.5,2.48-2.73,4.04-3.69,1.33-.9,2.79-1.6,4.39-2.1,1.63-.53,3.29-.85,4.99-.95,1.7-.13,3.34-.07,4.94.2v11.23c-1.6-.47-3.44-.62-5.54-.45-2.06.17-3.93.75-5.59,1.75-1.66.9-3.03,2.05-4.09,3.44-1.03,1.4-1.8,2.99-2.3,4.79-.5,1.76-.75,3.68-.75,5.74v27.4h-12.08ZM159.9,317.78c-5.46,0-10.25-1.18-14.37-3.54-4.13-2.36-7.35-5.64-9.68-9.83-2.3-4.19-3.44-9.02-3.44-14.47,0-5.89,1.13-11,3.39-15.32,2.26-4.36,5.41-7.73,9.43-10.13,4.03-2.4,8.68-3.59,13.97-3.59,5.59,0,10.33,1.31,14.22,3.94,3.93,2.59,6.84,6.27,8.73,11.03,1.9,4.76,2.61,10.36,2.15,16.82h-11.93v-4.39c-.03-5.86-1.06-10.13-3.09-12.82-2.03-2.69-5.22-4.04-9.58-4.04-4.92,0-8.58,1.53-10.98,4.59-2.4,3.03-3.59,7.47-3.59,13.32,0,5.46,1.2,9.68,3.59,12.68,2.4,2.99,5.89,4.49,10.48,4.49,2.96,0,5.51-.65,7.64-1.95,2.16-1.33,3.83-3.24,4.99-5.74l11.88,3.59c-2.06,4.86-5.26,8.63-9.58,11.33-4.29,2.69-9.03,4.04-14.22,4.04ZM141.34,292.68v-9.08h37.08v9.08h-37.08ZM216.25,317.78c-6.65,0-12.06-1.5-16.22-4.49-4.16-2.99-6.69-7.2-7.59-12.63l12.28-1.9c.63,2.66,2.03,4.76,4.19,6.29,2.16,1.53,4.89,2.3,8.18,2.3,2.89,0,5.12-.57,6.69-1.7,1.6-1.16,2.4-2.74,2.4-4.74,0-1.23-.3-2.21-.9-2.94-.57-.77-1.83-1.5-3.79-2.2-1.96-.7-4.97-1.58-9.03-2.64-4.52-1.2-8.12-2.48-10.78-3.84-2.66-1.4-4.57-3.04-5.74-4.94-1.16-1.9-1.75-4.19-1.75-6.89,0-3.36.88-6.29,2.64-8.78,1.76-2.5,4.23-4.41,7.39-5.74,3.16-1.36,6.89-2.05,11.18-2.05s7.9.65,11.13,1.95c3.26,1.3,5.89,3.14,7.88,5.54,2,2.4,3.23,5.21,3.69,8.43l-12.28,2.2c-.3-2.3-1.35-4.11-3.14-5.44-1.76-1.33-4.13-2.08-7.09-2.25-2.83-.17-5.11.27-6.84,1.3-1.73,1-2.59,2.41-2.59,4.24,0,1.03.35,1.91,1.05,2.64.7.73,2.1,1.46,4.19,2.2,2.13.73,5.29,1.63,9.48,2.69,4.29,1.1,7.72,2.36,10.28,3.79,2.59,1.4,4.46,3.08,5.59,5.04,1.16,1.96,1.75,4.34,1.75,7.14,0,5.42-1.98,9.68-5.94,12.77-3.93,3.09-9.36,4.64-16.32,4.64ZM275.33,317.78c-5.26,0-9.66-1.25-13.22-3.74-3.56-2.5-6.24-5.89-8.03-10.18-1.8-4.32-2.69-9.17-2.69-14.52s.9-10.28,2.69-14.57c1.8-4.29,4.42-7.67,7.88-10.13,3.49-2.5,7.8-3.74,12.92-3.74s9.5,1.25,13.22,3.74c3.76,2.46,6.67,5.84,8.73,10.13,2.06,4.26,3.09,9.12,3.09,14.57s-1.01,10.23-3.04,14.52c-2.03,4.29-4.89,7.68-8.58,10.18-3.69,2.5-8.02,3.74-12.97,3.74ZM249.33,340.24v-77.85h10.63v37.83h1.5v40.02h-12.13ZM273.49,307c3.13,0,5.71-.78,7.73-2.35,2.03-1.56,3.53-3.68,4.49-6.34,1-2.69,1.5-5.69,1.5-8.98s-.5-6.22-1.5-8.88c-1-2.69-2.55-4.82-4.64-6.39-2.1-1.6-4.76-2.4-7.98-2.4-3.06,0-5.56.75-7.49,2.25-1.93,1.46-3.36,3.53-4.29,6.19-.9,2.63-1.35,5.71-1.35,9.23s.45,6.57,1.35,9.23c.93,2.66,2.38,4.74,4.34,6.24,2,1.46,4.61,2.2,7.83,2.2ZM334.74,317.78c-5.39,0-10.1-1.21-14.12-3.64-4.03-2.43-7.15-5.77-9.38-10.03-2.2-4.29-3.29-9.22-3.29-14.77s1.13-10.61,3.39-14.87c2.26-4.26,5.41-7.59,9.43-9.98,4.03-2.4,8.68-3.59,13.97-3.59s10.15,1.21,14.17,3.64c4.03,2.43,7.15,5.79,9.38,10.08,2.23,4.26,3.34,9.17,3.34,14.72s-1.13,10.53-3.39,14.82c-2.23,4.26-5.36,7.6-9.38,10.03-4.03,2.4-8.73,3.59-14.12,3.59ZM334.74,306.51c4.79,0,8.35-1.6,10.68-4.79,2.33-3.19,3.49-7.32,3.49-12.38s-1.18-9.38-3.54-12.48c-2.36-3.13-5.91-4.69-10.63-4.69-3.23,0-5.89.73-7.98,2.2-2.06,1.43-3.59,3.44-4.59,6.04-1,2.56-1.5,5.54-1.5,8.93,0,5.22,1.18,9.4,3.54,12.53,2.4,3.09,5.91,4.64,10.53,4.64ZM409.91,316.29v-25.95c0-1.7-.12-3.58-.35-5.64s-.78-4.04-1.65-5.94c-.83-1.93-2.1-3.51-3.79-4.74-1.66-1.23-3.93-1.85-6.79-1.85-1.53,0-3.04.25-4.54.75-1.5.5-2.86,1.36-4.09,2.59-1.2,1.2-2.16,2.86-2.89,4.99-.73,2.1-1.1,4.79-1.1,8.08l-7.14-3.04c0-4.59.88-8.75,2.64-12.48,1.8-3.73,4.42-6.69,7.88-8.88,3.46-2.23,7.72-3.34,12.77-3.34,3.99,0,7.29.67,9.88,2,2.59,1.33,4.66,3.03,6.19,5.09s2.66,4.26,3.39,6.59,1.2,4.54,1.4,6.64c.23,2.06.35,3.74.35,5.04v30.09h-12.18ZM372.53,316.29v-53.89h10.73v16.72h1.45v37.18h-12.18ZM455.91,317.78c-6.65,0-12.06-1.5-16.22-4.49-4.16-2.99-6.69-7.2-7.59-12.63l12.28-1.9c.63,2.66,2.03,4.76,4.19,6.29,2.16,1.53,4.89,2.3,8.18,2.3,2.89,0,5.12-.57,6.69-1.7,1.6-1.16,2.4-2.74,2.4-4.74,0-1.23-.3-2.21-.9-2.94-.57-.77-1.83-1.5-3.79-2.2-1.96-.7-4.97-1.58-9.03-2.64-4.52-1.2-8.12-2.48-10.78-3.84-2.66-1.4-4.57-3.04-5.74-4.94-1.16-1.9-1.75-4.19-1.75-6.89,0-3.36.88-6.29,2.64-8.78s4.23-4.41,7.39-5.74c3.16-1.36,6.89-2.05,11.18-2.05s7.9.65,11.13,1.95c3.26,1.3,5.89,3.14,7.88,5.54,2,2.4,3.23,5.21,3.69,8.43l-12.28,2.2c-.3-2.3-1.35-4.11-3.14-5.44-1.76-1.33-4.13-2.08-7.09-2.25-2.83-.17-5.11.27-6.84,1.3-1.73,1-2.59,2.41-2.59,4.24,0,1.03.35,1.91,1.05,2.64.7.73,2.1,1.46,4.19,2.2,2.13.73,5.29,1.63,9.48,2.69,4.29,1.1,7.72,2.36,10.28,3.79,2.59,1.4,4.46,3.08,5.59,5.04,1.16,1.96,1.75,4.34,1.75,7.14,0,5.42-1.98,9.68-5.94,12.77-3.93,3.09-9.36,4.64-16.32,4.64ZM490.1,254.21v-11.03h12.03v11.03h-12.03ZM490.1,316.29v-53.89h12.03v53.89h-12.03ZM531.64,316.29l-19.56-53.89h12.03l13.57,39.07,13.52-39.07h12.08l-19.56,53.89h-12.08ZM594.79,317.78c-5.46,0-10.25-1.18-14.37-3.54-4.13-2.36-7.35-5.64-9.68-9.83-2.3-4.19-3.44-9.02-3.44-14.47,0-5.89,1.13-11,3.39-15.32,2.26-4.36,5.41-7.73,9.43-10.13,4.03-2.4,8.68-3.59,13.97-3.59,5.59,0,10.33,1.31,14.22,3.94,3.93,2.59,6.84,6.27,8.73,11.03,1.9,4.76,2.61,10.36,2.15,16.82h-11.93v-4.39c-.03-5.86-1.06-10.13-3.09-12.82-2.03-2.69-5.22-4.04-9.58-4.04-4.92,0-8.58,1.53-10.98,4.59-2.4,3.03-3.59,7.47-3.59,13.32,0,5.46,1.2,9.68,3.59,12.68s5.89,4.49,10.48,4.49c2.96,0,5.51-.65,7.64-1.95,2.16-1.33,3.83-3.24,4.99-5.74l11.88,3.59c-2.06,4.86-5.26,8.63-9.58,11.33-4.29,2.69-9.03,4.04-14.22,4.04ZM576.23,292.68v-9.08h37.08v9.08h-37.08ZM673.71,317.78c-5.56,0-10.3-1.23-14.22-3.69-3.93-2.5-6.94-5.89-9.03-10.18-2.06-4.29-3.11-9.15-3.14-14.57.03-5.52,1.11-10.41,3.24-14.67,2.16-4.29,5.22-7.65,9.18-10.08,3.96-2.46,8.67-3.69,14.12-3.69,6.12,0,11.29,1.55,15.52,4.64,4.26,3.06,7.04,7.25,8.33,12.58l-11.98,3.24c-.93-2.89-2.48-5.14-4.64-6.74-2.16-1.63-4.62-2.45-7.39-2.45-3.13,0-5.71.75-7.73,2.25-2.03,1.46-3.53,3.49-4.49,6.09-.96,2.59-1.45,5.54-1.45,8.83,0,5.12,1.15,9.27,3.44,12.43,2.3,3.16,5.71,4.74,10.23,4.74,3.19,0,5.71-.73,7.54-2.2,1.86-1.46,3.26-3.58,4.19-6.34l12.28,2.74c-1.66,5.49-4.57,9.71-8.73,12.68-4.16,2.93-9.25,4.39-15.27,4.39ZM707.25,254.21v-11.03h12.03v11.03h-12.03ZM707.25,316.29v-53.89h12.03v53.89h-12.03ZM765.81,316.29c-3.56.67-7.05.95-10.48.85-3.39-.07-6.44-.68-9.13-1.85-2.69-1.2-4.74-3.08-6.14-5.64-1.23-2.33-1.88-4.71-1.95-7.14-.07-2.43-.1-5.17-.1-8.23v-46.86h11.98v46.16c0,2.16.02,4.06.05,5.69.07,1.63.42,2.96,1.05,3.99,1.2,2,3.11,3.11,5.74,3.34,2.63.23,5.62.1,8.98-.4v10.08ZM728.24,271.82v-9.43h37.58v9.43h-37.58ZM778.4,254.21v-11.03h12.03v11.03h-12.03ZM778.4,316.29v-53.89h12.03v53.89h-12.03ZM829.88,317.78c-5.46,0-10.25-1.18-14.37-3.54-4.13-2.36-7.35-5.64-9.68-9.83-2.3-4.19-3.44-9.02-3.44-14.47,0-5.89,1.13-11,3.39-15.32,2.26-4.36,5.41-7.73,9.43-10.13,4.03-2.4,8.68-3.59,13.97-3.59,5.59,0,10.33,1.31,14.22,3.94,3.93,2.59,6.84,6.27,8.73,11.03,1.9,4.76,2.61,10.36,2.15,16.82h-11.93v-4.39c-.03-5.86-1.06-10.13-3.09-12.82-2.03-2.69-5.22-4.04-9.58-4.04-4.92,0-8.58,1.53-10.98,4.59-2.4,3.03-3.59,7.47-3.59,13.32,0,5.46,1.2,9.68,3.59,12.68,2.4,2.99,5.89,4.49,10.48,4.49,2.96,0,5.51-.65,7.64-1.95,2.16-1.33,3.83-3.24,4.99-5.74l11.88,3.59c-2.06,4.86-5.26,8.63-9.58,11.33-4.29,2.69-9.03,4.04-14.22,4.04ZM811.31,292.68v-9.08h37.08v9.08h-37.08ZM886.22,317.78c-6.65,0-12.06-1.5-16.22-4.49-4.16-2.99-6.69-7.2-7.59-12.63l12.28-1.9c.63,2.66,2.03,4.76,4.19,6.29,2.16,1.53,4.89,2.3,8.18,2.3,2.89,0,5.12-.57,6.69-1.7,1.6-1.16,2.4-2.74,2.4-4.74,0-1.23-.3-2.21-.9-2.94-.57-.77-1.83-1.5-3.79-2.2-1.96-.7-4.97-1.58-9.03-2.64-4.52-1.2-8.12-2.48-10.78-3.84-2.66-1.4-4.57-3.04-5.74-4.94-1.16-1.9-1.75-4.19-1.75-6.89,0-3.36.88-6.29,2.64-8.78,1.76-2.5,4.23-4.41,7.39-5.74,3.16-1.36,6.89-2.05,11.18-2.05s7.9.65,11.13,1.95c3.26,1.3,5.89,3.14,7.88,5.54,2,2.4,3.23,5.21,3.69,8.43l-12.28,2.2c-.3-2.3-1.35-4.11-3.14-5.44-1.76-1.33-4.13-2.08-7.09-2.25-2.83-.17-5.11.27-6.84,1.3-1.73,1-2.59,2.41-2.59,4.24,0,1.03.35,1.91,1.05,2.64.7.73,2.1,1.46,4.19,2.2,2.13.73,5.29,1.63,9.48,2.69,4.29,1.1,7.72,2.36,10.28,3.79,2.59,1.4,4.46,3.08,5.59,5.04,1.16,1.96,1.75,4.34,1.75,7.14,0,5.42-1.98,9.68-5.94,12.77-3.93,3.09-9.36,4.64-16.32,4.64Z"/>
</svg>