<svg width="84" height="45" viewBox="0 0 84 45" fill="none" xmlns="http://www.w3.org/2000/svg">
<g clip-path="url(#clip0_21003_39740)">
<path d="M16.1699 37.5969C11.3224 37.6104 7.65129 33.7263 7.63777 28.5577C7.62087 23.389 11.2683 19.4813 16.1158 19.4644C20.9363 19.4475 24.5838 23.335 24.5973 28.5002C24.6142 33.6689 20.9904 37.58 16.1699 37.5969ZM16.6973 12.0883C13.78 12.0985 11.1804 12.9098 8.97641 14.4986L7.59721 15.489L7.55664 0L0.4375 2.13642V44.2732L7.68172 44.2665L7.67496 41.6264L9.05754 42.6101C11.2751 44.1853 13.878 44.9763 16.7919 44.9696C25.0536 44.9392 31.7536 37.5428 31.7266 28.4766C31.6995 19.4137 24.959 12.0613 16.6973 12.0883Z" fill="#B5B5B5"/>
<path d="M46.7786 25.1266L45.9775 24.8257C42.6038 23.5682 41.0995 22.713 41.0995 20.9653C41.0995 19.0587 42.9757 18.3793 44.7301 18.3793C46.542 18.3793 48.6987 18.9641 48.6987 21.7597V23.2538H55.8584V21.7597C55.8584 15.675 51.2813 11.4258 44.7301 11.4258C37.6786 11.4258 33.9872 16.226 33.9872 20.9653C33.9872 27.7261 39.5378 29.7206 43.9965 31.3229L44.4597 31.4885C47.9043 32.7731 49.5472 33.6587 49.5472 35.2239C49.5472 37.2589 47.2924 37.9789 45.3656 37.9789C43.094 37.9789 40.3829 37.3197 40.3829 34.1793V32.5838H33.2266V34.1793C33.2266 40.6359 38.1045 44.973 45.3656 44.973C51.9337 44.973 56.7035 40.8725 56.7035 35.2239C56.7035 28.8146 51.2002 26.7695 46.7786 25.1266Z" fill="#B5B5B5"/>
<path d="M83.5147 40.8184C83.5147 41.3525 83.0854 41.7886 82.5547 41.7886C82.024 41.7886 81.5913 41.3525 81.5913 40.8184C81.5913 40.2843 82.024 39.8483 82.5547 39.8483C83.0854 39.8483 83.5147 40.2843 83.5147 40.8184ZM72.7346 40.1356H80.4588V37.3468H69.4286L74.222 32.6581C78.1027 28.8721 79.9112 25.4714 79.9112 21.9591C79.9112 16.7229 76.2266 11.4258 69.1852 11.4258C63.9219 11.4258 58.2529 14.7352 58.2529 21.9997V23.2538H65.3247V21.9997C65.3247 19.5726 66.6397 18.3421 69.2291 18.3421C70.9531 18.3421 72.7954 19.292 72.7954 21.9591C72.7954 24.0922 70.6895 26.4247 69.0973 27.9999L62.0863 35.021C59.6288 37.482 58.2529 40.8015 58.2529 44.2631H80.4588V41.508H72.7346C72.3526 41.508 72.0416 41.2004 72.0416 40.8218C72.0416 40.4432 72.3526 40.1356 72.7346 40.1356Z" fill="#B5B5B5"/>
</g>
<defs>
<clipPath id="clip0_21003_39740">
<rect width="83.9423" height="45" fill="white"/>
</clipPath>
</defs>
</svg>
