<svg width="170" height="45" viewBox="0 0 170 45" fill="none" xmlns="http://www.w3.org/2000/svg">
<mask id="mask0_21097_27324" style="mask-type:luminance" maskUnits="userSpaceOnUse" x="17" y="4" width="136" height="36">
<path d="M152.748 4H17.5V40H152.748V4Z" fill="white"/>
</mask>
<g mask="url(#mask0_21097_27324)">
<mask id="mask1_21097_27324" style="mask-type:luminance" maskUnits="userSpaceOnUse" x="17" y="4" width="136" height="36">
<path d="M152.744 4H17.4961V40H152.744V4Z" fill="white"/>
</mask>
<g mask="url(#mask1_21097_27324)">
<path d="M73.5634 30.5505H62.4034V25.1786H73.8291C75.2639 25.3115 76.3401 26.4684 76.3401 27.8379C76.3534 29.3271 75.1312 30.5505 73.5634 30.5505ZM62.4166 12.9855H74.2542C75.543 13.185 76.5659 14.2753 76.5659 15.5783C76.5659 16.8815 75.543 18.0915 74.1879 18.2377H62.5496L62.4166 12.9855ZM79.0106 21.4954C83.3019 20.1391 84.0459 16.7352 84.0459 13.9429C84.0459 9.64802 80.9105 5.97815 71.5971 5.97815H54.1797V37.9699H71.5306C80.9237 37.9699 84.3913 33.3428 84.3913 28.782C84.3781 23.2639 79.0106 21.4954 79.0106 21.4954Z" fill="#B5B5B5"/>
<path d="M123.359 6.0437H152.747V12.9846H131.531V18.157H150.648V25.1644H131.531V30.749H152.747V38.1021H123.359V6.0437Z" fill="#B5B5B5"/>
<path d="M110.713 15.9763C110.58 17.0002 109.49 18.157 108.056 18.157H96.5637V13.0511H108.056C109.411 13.0511 110.5 14.0084 110.713 15.2982V15.9763ZM106.222 6.0437H88.4727V38.1153H96.6302V25.1776H105.611C108.202 25.2441 110.168 27.2254 110.168 29.7384V38.1153H118.193V27.7705C118.193 23.0103 113.357 21.5741 113.357 21.5741C113.357 21.5741 118.326 20.1382 118.326 14.5003C118.259 7.46642 112.068 6.0437 106.222 6.0437Z" fill="#B5B5B5"/>
<path d="M48.8792 30.3368C48.7465 30.3368 37.7192 30.5362 33.9195 30.2039C27.7948 29.6586 25.616 25.2973 25.616 21.7604C25.616 17.3326 28.7514 14.0616 33.6405 13.4499C35.9522 13.184 48.68 13.317 48.8127 13.317H49.0786V6.0437H34.3845C32.7504 6.11018 30.0933 6.30964 27.383 7.33349C24.872 8.49031 22.547 10.2588 20.8464 12.4395C18.734 15.2317 17.5781 18.5027 17.5781 21.9731C17.5781 23.0635 17.6446 24.1538 17.8438 25.1776C18.8668 30.0177 22.2015 34.0332 26.9578 36.2007C28.592 36.8787 31.0365 37.7031 36.0718 37.969L38.7953 38.0356H49.1317V30.3368H48.8792Z" fill="#B5B5B5"/>
</g>
</g>
</svg>
