<svg width="212" height="62" viewBox="0 0 212 62" fill="none" xmlns="http://www.w3.org/2000/svg">
<g clip-path="url(#clip0_21003_39759)">
<path fill-rule="evenodd" clip-rule="evenodd" d="M0.167905 33.5711C0.0421932 32.5079 -0.00193821 30.9967 -0.00193821 30.3828C-0.00589158 26.3953 0.775886 22.4461 2.29873 18.7609C3.82157 15.0756 6.05564 11.7265 8.87327 8.905C11.6909 6.08346 15.0369 3.84475 18.72 2.31679C22.4031 0.788839 26.3512 0.00157926 30.3387 0C35.6365 0.00848747 40.7149 2.11673 44.461 5.86276C48.2072 9.60878 50.3156 14.6871 50.3242 19.9848V41.1084L33.5176 48.9447V15.1764C33.5113 12.9306 32.6164 10.7786 31.0284 9.19052C29.4405 7.60244 27.2886 6.70737 25.0428 6.70084C21.8008 6.70721 18.5921 7.35542 15.6019 8.60809C12.6117 9.86077 9.89903 11.6931 7.62052 13.9994C5.342 16.3057 3.5427 19.0403 2.32636 22.0455C1.11002 25.0507 0.500739 28.267 0.533671 31.5089C0.559749 32.6663 0.60589 33.3939 0.614583 33.5503C0.614583 33.8105 0.178609 33.7937 0.168578 33.5704M60.5109 27.1103C60.6353 28.1735 60.6808 29.684 60.6808 30.2985C60.6846 34.286 59.9028 38.2351 58.3799 41.9203C56.857 45.6055 54.6229 48.9545 51.8053 51.7759C48.9877 54.5974 45.6418 56.836 41.9587 58.364C38.2756 59.8919 34.3275 60.6791 30.3401 60.6807C25.0424 60.672 19.9641 58.5637 16.218 54.8177C12.4719 51.0718 10.3634 45.9936 10.3546 40.6958V19.5769L27.1612 11.74V45.5083C27.1675 47.7541 28.0624 49.9061 29.6504 51.4942C31.2383 53.0823 33.3902 53.9773 35.636 53.9839C38.878 53.9775 42.0867 53.3293 45.0769 52.0766C48.0672 50.8239 50.7798 48.9916 53.0583 46.6853C55.3368 44.379 57.1361 41.6444 58.3525 38.6392C59.5688 35.634 60.1781 32.4177 60.1451 29.1758C60.1191 28.0184 60.0729 27.2908 60.0642 27.1344C60.0642 26.8709 60.5002 26.8883 60.5102 27.111L60.5109 27.1103Z" fill="#B5B5B5"/>
<path fill-rule="evenodd" clip-rule="evenodd" d="M157.526 27.5633L155.538 33.893H159.455L157.526 27.5633ZM154.588 36.9154L153.368 40.7984H149.176L155.62 22.1289H159.852L166.338 40.7984H161.559L160.375 36.9154H154.588ZM85.3075 22.1302H89.801L89.797 40.7991H85.3035V32.9087H79.8464V40.7991H75.3535L75.3575 22.1302H79.8504V29.1875H85.3081L85.3075 22.1302ZM211.955 40.7991H201.757L201.761 22.1302H206.255L206.252 37.5232H211.957L211.955 40.7991ZM174.285 28.8485C174.785 29.1066 175.32 29.362 175.853 29.6335C177.968 30.7074 180.453 32.1899 180.453 35.2939C180.453 39.5988 177.141 41.078 173.276 41.078C171.462 41.0388 169.665 40.7259 167.946 40.1498V35.5573L168.84 36.115C170.178 36.9475 172.006 37.9031 173.805 37.9031C174.892 37.9031 175.959 37.4524 175.959 36.3591C175.944 35.9861 175.839 35.6222 175.653 35.2987C175.467 34.9753 175.205 34.7019 174.889 34.5022C174.535 34.2253 172.637 33.1742 172.121 32.902C170.067 31.8167 167.655 30.3771 167.656 27.2296C167.656 23.9584 170.2 22.1296 174.152 22.1296H180.456V25.3045H173.694C172.458 25.3045 171.897 25.8962 171.897 26.5195C171.897 27.0865 172.235 27.5706 172.983 28.0908C173.4 28.3716 173.836 28.6247 174.287 28.8485H174.285ZM183.717 22.1302H188.211V34.2541C188.211 37.0351 188.651 38.2327 190.592 38.2327C192.685 38.2327 193.049 37.0351 193.05 34.2541V22.1302H197.543V34.2541C197.543 37.5306 196.766 41.078 190.589 41.078C184.485 41.078 183.715 37.5212 183.716 34.2541L183.717 22.1302ZM150.107 25.3051H145.894L145.891 40.7991H141.397L141.4 25.3051H137.191V22.1302H150.103L150.107 25.3051ZM129.779 22.1302H134.272L134.268 40.7991H129.775L129.779 22.1302ZM97.4948 36.9168L96.2745 40.7991H92.0899L98.534 22.1302H102.765L109.252 40.7991H104.469L103.286 36.9168H97.4948ZM100.433 27.5646L98.4444 33.8943H102.361L100.433 27.5646ZM111.533 22.1309H118.688C121.563 22.1309 125.157 22.7815 125.156 26.8498C125.185 27.628 125.01 28.4003 124.648 29.0897C124.286 29.7792 123.75 30.3618 123.093 30.7796C124.619 31.4195 126.042 32.7121 126.041 35.4216C126.041 40.5443 121.227 40.7998 118.686 40.7998H111.531L111.533 22.1309ZM116.029 32.3804V37.5232H117.8C120.045 37.5232 121.551 37.2491 121.552 35.0404C121.552 33.1481 120.542 32.3798 117.802 32.3798L116.029 32.3804ZM116.029 25.1533V29.358H117.801C119.585 29.358 120.663 29.0772 120.664 27.2557C120.664 25.499 119.856 25.1533 117.801 25.1533H116.029ZM85.3616 48.5739V54.6909C85.3616 56.049 85.5623 59.0213 89.1919 59.0213C92.2504 59.0213 93.1651 57.1203 93.1651 54.6909V48.5739H92.5359V54.6909C92.5359 57.0072 91.6927 58.479 89.1925 58.479C86.2503 58.479 85.9909 55.9206 85.9909 54.6909V48.5739H85.3616ZM94.451 58.7779H94.9946V54.4315C94.9946 52.5451 96.2812 51.7307 97.3237 51.7307C97.7958 51.7307 99.0535 51.9025 99.0535 53.7461V58.7766H99.5972V54.4302C99.5972 52.6729 100.569 51.7294 101.898 51.7294C102.327 51.7294 103.656 51.8725 103.656 53.7448V58.7752H104.2V53.7601C104.2 52.0309 103.227 51.2593 101.898 51.2593C101.393 51.2301 100.892 51.3665 100.472 51.6477C100.052 51.9288 99.7343 52.3395 99.5684 52.8173C99.441 52.333 99.145 51.91 98.7337 51.6244C98.3223 51.3389 97.8226 51.2094 97.3243 51.2593C96.8115 51.251 96.3098 51.4095 95.8948 51.711C95.4798 52.0125 95.174 52.4407 95.0234 52.931L94.9953 51.4305H94.4517L94.451 58.7779ZM110.258 55.9768C110.252 56.3242 110.175 56.6666 110.032 56.9832C109.889 57.2998 109.683 57.5839 109.426 57.818C109.169 58.0522 108.868 58.2315 108.539 58.3451C108.211 58.4586 107.863 58.504 107.516 58.4783C106.23 58.4783 105.587 57.7635 105.587 56.8775C105.587 55.7769 106.316 55.3195 107.603 55.1764C108.66 55.0333 109.832 55.0901 110.261 54.6047L110.258 55.9768ZM110.802 53.1757C110.802 51.6611 109.515 51.2606 108.229 51.2606C106.5 51.2606 105.499 52.0757 105.428 53.6899H105.971C106.043 52.4194 106.915 51.732 108.229 51.732C109.901 51.732 110.273 52.8474 110.273 53.1757C110.273 54.3793 110.173 54.5338 107.744 54.705C106.529 54.8053 105.042 55.1624 105.042 56.8775C105.042 58.4208 106.112 58.9504 107.501 58.9504C108.067 58.9839 108.63 58.8464 109.117 58.5558C109.604 58.2652 109.992 57.8349 110.231 57.3209L110.259 57.7073C110.259 58.3092 110.388 58.7772 111.246 58.7772C111.395 58.7716 111.543 58.7526 111.689 58.7204V58.2637C111.556 58.2883 111.422 58.3027 111.288 58.3065C110.802 58.3065 110.802 57.8491 110.802 57.4198L110.802 53.1757ZM115.008 51.3034H116.201V52.5946C116.375 52.2433 116.619 51.932 116.92 51.6805C117.093 51.5073 117.299 51.3701 117.525 51.2767C117.751 51.1832 117.994 51.1355 118.239 51.1362L118.358 51.1436L118.644 51.171V52.4977C118.575 52.4842 118.505 52.4751 118.435 52.4703L118.234 52.4629C117.96 52.4464 117.686 52.4933 117.433 52.5999C117.18 52.7064 116.955 52.8699 116.776 53.0774C116.441 53.468 116.259 53.9672 116.266 54.4816V58.7806H115.01L115.008 51.3034ZM123.959 51.5127C124.417 51.7262 124.809 52.0588 125.095 52.4756C125.355 52.8742 125.526 53.3239 125.597 53.7942C125.687 54.3384 125.725 54.8899 125.709 55.4412H120.241C120.231 56.0909 120.417 56.7285 120.776 57.27C120.96 57.503 121.198 57.6872 121.469 57.8064C121.741 57.9256 122.037 57.9761 122.333 57.9534C122.626 57.9664 122.919 57.915 123.19 57.8029C123.461 57.6909 123.704 57.5209 123.903 57.3048C124.126 57.0551 124.288 56.7578 124.378 56.4355H125.613C125.563 56.7607 125.452 57.0734 125.285 57.357C125.126 57.6627 124.919 57.9408 124.671 58.1808C124.279 58.559 123.788 58.82 123.255 58.9344C122.919 59.0125 122.574 59.05 122.229 59.0461C121.785 59.0532 121.346 58.9668 120.938 58.7925C120.53 58.6181 120.164 58.3598 119.863 58.0343C119.178 57.2493 118.83 56.2262 118.893 55.1864C118.846 54.1245 119.194 53.0827 119.87 52.2623C120.185 51.8957 120.577 51.6044 121.02 51.41C121.462 51.2155 121.942 51.1229 122.425 51.1389C122.961 51.1397 123.49 51.2678 123.967 51.5127H123.959ZM124.419 54.4442C124.393 53.9889 124.271 53.5442 124.062 53.1389C123.89 52.8403 123.637 52.5966 123.332 52.436C123.027 52.2754 122.683 52.2045 122.339 52.2315C122.066 52.2262 121.795 52.2794 121.545 52.3878C121.294 52.4961 121.07 52.6569 120.887 52.8594C120.489 53.2908 120.267 53.8563 120.266 54.4435L124.419 54.4442ZM126.859 48.5264H128.114V58.7779H126.868L126.859 48.5264ZM130.931 57.6472C131.199 57.8576 131.533 57.9685 131.874 57.9608C132.32 57.9599 132.759 57.8548 133.158 57.6539C133.481 57.5154 133.754 57.2816 133.941 56.9836C134.128 56.6856 134.22 56.3376 134.204 55.9862V54.9745C134.02 55.085 133.82 55.1672 133.611 55.2185C133.377 55.2822 133.139 55.329 132.899 55.3583L132.138 55.4559C131.782 55.4874 131.434 55.5845 131.112 55.7421C130.926 55.8434 130.773 55.9957 130.67 56.181C130.568 56.3664 130.52 56.5771 130.533 56.7886C130.527 56.9538 130.561 57.118 130.632 57.2674C130.703 57.4168 130.809 57.547 130.94 57.6472H130.931ZM133.576 54.2483C133.696 54.2441 133.813 54.2084 133.914 54.1448C134.016 54.0812 134.099 53.9918 134.155 53.8858C134.219 53.7335 134.248 53.5687 134.239 53.4037C134.254 53.2218 134.218 53.0394 134.137 52.876C134.056 52.7126 133.932 52.5742 133.779 52.4756C133.38 52.2568 132.927 52.1553 132.473 52.1827C132.216 52.1564 131.955 52.1906 131.713 52.2827C131.471 52.3747 131.253 52.5221 131.078 52.713C130.902 52.9709 130.799 53.271 130.778 53.5823H129.606C129.576 53.2125 129.643 52.8415 129.8 52.5052C129.956 52.169 130.197 51.8789 130.499 51.6632C131.101 51.293 131.798 51.104 132.505 51.1188C133.251 51.087 133.991 51.261 134.645 51.6217C134.91 51.783 135.127 52.0139 135.271 52.2895C135.415 52.5651 135.481 52.8748 135.461 53.1851V57.4907C135.456 57.6006 135.482 57.7098 135.537 57.805C135.581 57.8502 135.635 57.8844 135.694 57.905C135.754 57.9256 135.817 57.9318 135.88 57.9233L136.068 57.916L136.292 57.8812V58.8093C136.146 58.8542 135.996 58.889 135.846 58.9136C135.707 58.9299 135.567 58.937 135.427 58.9351C135.243 58.9494 135.059 58.9143 134.893 58.8334C134.728 58.7525 134.587 58.6288 134.485 58.475C134.366 58.262 134.292 58.0266 134.268 57.7836C133.97 58.1514 133.593 58.4483 133.166 58.6529C132.675 58.9017 132.132 59.0286 131.581 59.0226C130.953 59.047 130.341 58.8212 129.879 58.3948C129.665 58.1913 129.496 57.9452 129.383 57.6723C129.27 57.3995 129.215 57.1059 129.222 56.8107C129.205 56.5107 129.254 56.2105 129.366 55.9318C129.479 55.6531 129.651 55.4026 129.872 55.1985C130.354 54.7957 130.948 54.5498 131.574 54.4937L133.576 54.2483ZM142.024 51.7006C142.319 51.9695 142.556 52.2957 142.72 52.6592C142.885 53.0228 142.973 53.416 142.98 53.815H141.759C141.702 53.3927 141.525 52.9956 141.25 52.6702C141.084 52.5048 140.883 52.3779 140.662 52.2985C140.442 52.219 140.206 52.1888 139.973 52.2101C139.599 52.1987 139.232 52.306 138.923 52.5166C138.615 52.7273 138.381 53.0304 138.256 53.3823C138.016 53.9785 137.902 54.6178 137.921 55.26C137.899 55.9226 138.063 56.5782 138.396 57.1517C138.547 57.3621 138.741 57.5383 138.965 57.6687C139.189 57.7991 139.437 57.8808 139.695 57.9084C139.953 57.9361 140.213 57.909 140.459 57.8291C140.706 57.7492 140.933 57.6181 141.125 57.4446C141.456 57.0758 141.676 56.621 141.76 56.1326H142.981C142.921 56.9648 142.547 57.743 141.935 58.3098C141.387 58.7619 140.697 59.0044 139.987 58.9939L139.492 59.6706C139.662 59.6242 139.839 59.603 140.016 59.6077C140.309 59.5964 140.595 59.6959 140.818 59.8866C140.927 59.9898 141.013 60.1159 141.068 60.2558C141.124 60.3957 141.148 60.5461 141.139 60.6963C141.139 60.8699 141.102 61.0415 141.03 61.1994C140.958 61.3572 140.852 61.4974 140.72 61.6104C140.355 61.8944 139.897 62.0313 139.436 61.9943C139.177 61.9925 138.919 61.9575 138.669 61.8899C138.519 61.8525 138.32 61.787 138.067 61.6947L138.311 61.129C138.489 61.1945 138.627 61.2411 138.723 61.2687C138.891 61.3165 139.065 61.3423 139.239 61.3456C139.391 61.3491 139.543 61.323 139.685 61.2687C139.795 61.2323 139.89 61.1608 139.956 61.0652C140.022 60.9695 140.054 60.855 140.048 60.7392C140.048 60.6641 140.03 60.5901 139.998 60.5225C139.965 60.4549 139.918 60.3953 139.86 60.348C139.722 60.2358 139.548 60.1789 139.371 60.1882C139.277 60.1873 139.184 60.1965 139.092 60.2156C138.995 60.2397 138.899 60.2701 138.806 60.3065L138.562 60.0203L139.315 58.9939C138.987 58.9931 138.662 58.9217 138.364 58.7845C138.065 58.6474 137.8 58.4476 137.585 58.1988C136.893 57.3753 136.535 56.322 136.582 55.2473C136.514 54.1431 136.854 53.0525 137.538 52.1827C137.836 51.8298 138.21 51.5481 138.632 51.3586C139.053 51.1691 139.512 51.0764 139.974 51.0874C140.71 51.0522 141.436 51.2687 142.033 51.7013L142.024 51.7006ZM145.167 57.6465C145.436 57.8569 145.769 57.9677 146.11 57.9601C146.556 57.9592 146.996 57.8541 147.394 57.6532C147.717 57.5149 147.991 57.2811 148.178 56.983C148.365 56.685 148.456 56.337 148.44 55.9855V54.9745C148.256 55.0849 148.056 55.1671 147.847 55.2185C147.614 55.2822 147.376 55.3289 147.136 55.3583L146.375 55.4559C146.018 55.4875 145.67 55.5845 145.349 55.7421C145.163 55.8434 145.01 55.9957 144.907 56.181C144.804 56.3664 144.757 56.5771 144.77 56.7886C144.764 56.9539 144.798 57.1181 144.869 57.2675C144.94 57.4169 145.046 57.5471 145.178 57.6472L145.167 57.6465ZM147.812 54.2476C147.932 54.2435 148.049 54.2078 148.151 54.1442C148.252 54.0806 148.335 53.9912 148.391 53.8852C148.455 53.7327 148.483 53.568 148.475 53.4031C148.489 53.2212 148.454 53.0389 148.373 52.8755C148.292 52.712 148.168 52.5736 148.015 52.4749C147.616 52.2561 147.164 52.1545 146.71 52.1821C146.452 52.1554 146.192 52.1895 145.949 52.2816C145.707 52.3736 145.489 52.5212 145.314 52.7123C145.138 52.97 145.034 53.2702 145.014 53.5816H143.841C143.812 53.2118 143.879 52.8408 144.035 52.5045C144.192 52.1683 144.433 51.8782 144.734 51.6625C145.337 51.2924 146.033 51.1034 146.74 51.1182C147.486 51.0863 148.227 51.2603 148.88 51.621C149.146 51.7824 149.362 52.0134 149.506 52.289C149.65 52.5645 149.716 52.8741 149.697 53.1844V57.49C149.691 57.5999 149.718 57.7091 149.773 57.8043C149.817 57.8495 149.871 57.8838 149.93 57.9043C149.989 57.9249 150.053 57.9312 150.115 57.9227L150.304 57.9153L150.528 57.8805V58.8087C150.381 58.8535 150.232 58.8883 150.081 58.913C149.942 58.9292 149.802 58.9363 149.663 58.9344C149.479 58.9487 149.294 58.9136 149.128 58.8327C148.963 58.7519 148.822 58.6281 148.72 58.4743C148.601 58.2611 148.528 58.0258 148.504 57.7829C148.205 58.1508 147.828 58.4477 147.401 58.6522C146.911 58.9012 146.367 59.028 145.817 59.022C145.189 59.0463 144.577 58.8205 144.115 58.3941C143.9 58.1906 143.731 57.9445 143.618 57.6717C143.505 57.3988 143.451 57.1053 143.458 56.81C143.44 56.51 143.49 56.2099 143.602 55.9311C143.714 55.6524 143.887 55.402 144.107 55.1978C144.59 54.7951 145.184 54.5492 145.81 54.493L147.812 54.2476ZM146.333 48.7062C146.6 48.778 146.862 48.8713 147.114 48.9851C147.23 49.0362 147.349 49.0808 147.47 49.1188C147.576 49.1515 147.687 49.168 147.798 49.1676C147.904 49.1777 148.011 49.1606 148.109 49.1179C148.207 49.0752 148.292 49.0083 148.357 48.9236C148.428 48.8024 148.471 48.6666 148.482 48.5264H149.218C149.183 48.9883 148.983 49.4221 148.653 49.7474C148.4 49.9628 148.078 50.0812 147.745 50.0817C147.613 50.0779 147.482 50.059 147.354 50.0256C147.212 49.9932 147.072 49.9512 146.936 49.8998L146.565 49.7661C146.347 49.6872 146.168 49.629 146.03 49.5916C145.9 49.5506 145.765 49.5297 145.629 49.5294C145.554 49.5271 145.48 49.5401 145.41 49.5677C145.34 49.5953 145.277 49.6369 145.224 49.6899C145.107 49.8283 145.035 49.9982 145.015 50.178H144.341C144.383 49.8618 144.485 49.5565 144.641 49.278C144.76 49.0737 144.933 48.9058 145.141 48.7926C145.349 48.6793 145.583 48.625 145.82 48.6354C145.996 48.6386 146.172 48.6628 146.343 48.7076L146.333 48.7062ZM156.002 57.0246C156.32 56.3679 156.48 55.6463 156.47 54.917C156.494 54.3311 156.379 53.7479 156.136 53.2145C155.968 52.8803 155.704 52.6037 155.379 52.4197C155.053 52.2358 154.68 52.1528 154.307 52.1814C153.974 52.1588 153.642 52.2291 153.347 52.3844C153.052 52.5396 152.805 52.7738 152.636 53.0607C152.271 53.7068 152.09 54.4402 152.111 55.1817C152.085 55.8821 152.268 56.5744 152.636 57.1711C152.818 57.4377 153.068 57.6516 153.359 57.7911C153.651 57.9307 153.974 57.991 154.297 57.9661C154.645 58.0021 154.995 57.9315 155.302 57.7636C155.609 57.5957 155.858 57.3384 156.016 57.026L156.002 57.0246ZM156.784 52.049C157.136 52.4274 157.406 52.8742 157.578 53.3617C157.75 53.8491 157.819 54.3667 157.782 54.8822C157.824 55.9471 157.515 56.9965 156.902 57.8685C156.578 58.2724 156.16 58.591 155.684 58.7965C155.209 59.0021 154.69 59.0884 154.173 59.0481C153.713 59.0684 153.255 58.9855 152.831 58.8054C152.407 58.6254 152.029 58.3528 151.724 58.0076C151.086 57.215 150.763 56.215 150.817 55.1991C150.76 54.1158 151.1 53.0487 151.773 52.1981C152.089 51.8301 152.484 51.5384 152.929 51.345C153.373 51.1516 153.856 51.0615 154.341 51.0814C154.794 51.0704 155.244 51.1505 155.666 51.317C156.088 51.4834 156.471 51.7328 156.795 52.0503L156.784 52.049ZM164.418 58.4763C162.531 58.4763 161.676 56.8468 161.676 55.1176C161.676 53.3456 162.462 51.73 164.406 51.73C166.293 51.73 167.137 53.4017 167.137 55.1176C167.145 56.8053 166.287 58.4777 164.428 58.4777L164.418 58.4763ZM167.148 58.7759H167.691V48.5719H167.148V53.0754C166.935 52.526 166.557 52.0563 166.066 51.7312C165.575 51.406 164.995 51.2416 164.406 51.2606C162.191 51.2606 161.13 52.947 161.13 55.1196C161.13 57.149 162.087 58.9498 164.303 58.9498C164.893 58.9753 165.477 58.8227 165.979 58.5117C166.481 58.2006 166.878 57.7456 167.118 57.2058L167.148 58.7759ZM175.136 55.1744C175.236 53.0734 174.208 51.2579 171.906 51.2579C169.691 51.2579 168.634 53.2158 168.662 55.2312C168.634 57.2607 169.762 58.9471 171.906 58.9471C172.678 59.0068 173.442 58.7619 174.035 58.265C174.628 57.768 175.003 57.0584 175.079 56.2884H174.536C174.449 56.9149 174.131 57.4863 173.644 57.8908C173.158 58.2953 172.538 58.5039 171.906 58.4757C170.091 58.4757 169.176 56.9029 169.205 55.1744H175.136ZM169.205 54.703C169.32 53.2452 170.275 51.73 171.906 51.73C173.593 51.73 174.564 53.1597 174.593 54.703H169.205ZM184.299 51.4264H183.697L181.225 58.1487L178.538 51.4311H177.91L180.868 58.7772H181.537L184.299 51.4264ZM185.312 58.7726V51.4311H184.769V58.7772L185.312 58.7726ZM185.312 50.0409V48.5698H184.769V50.0409H185.312ZM189.557 58.473C187.67 58.473 186.815 56.8434 186.815 55.1142C186.815 53.3422 187.601 51.7267 189.545 51.7267C191.432 51.7267 192.275 53.3984 192.275 55.1142C192.283 56.8053 191.425 58.4777 189.567 58.4777L189.557 58.473ZM192.287 58.7726H192.83V48.5685H192.287V53.0754C192.074 52.526 191.696 52.0563 191.205 51.7312C190.714 51.406 190.134 51.2416 189.545 51.2606C187.33 51.2606 186.273 52.947 186.273 55.1196C186.273 57.149 187.23 58.9498 189.446 58.9498C190.036 58.9752 190.62 58.8225 191.122 58.5115C191.624 58.2004 192.021 57.7455 192.261 57.2058L192.287 58.7726ZM199.003 55.9715C198.997 56.3188 198.92 56.6613 198.777 56.9779C198.634 57.2944 198.428 57.5785 198.171 57.8127C197.914 58.0469 197.613 58.2262 197.284 58.3397C196.956 58.4533 196.608 58.4986 196.262 58.473C194.975 58.473 194.332 57.7582 194.332 56.8722C194.332 55.7715 195.061 55.3141 196.348 55.171C197.405 55.0279 198.577 55.0848 199.006 54.5993L199.003 55.9715ZM199.546 53.1704C199.546 51.6558 198.26 51.2553 196.974 51.2553C195.244 51.2553 194.243 52.0704 194.173 53.6846H194.716C194.787 52.4141 195.658 51.7267 196.974 51.7267C198.645 51.7267 199.017 52.842 199.017 53.1704C199.017 54.374 198.917 54.5285 196.488 54.6996C195.273 54.7999 193.787 55.157 193.787 56.8722C193.787 58.4155 194.857 58.9451 196.245 58.9451C196.811 58.9785 197.374 58.841 197.861 58.5504C198.348 58.2598 198.736 57.8295 198.975 57.3155L199.004 57.702C199.004 58.3038 199.133 58.7719 199.99 58.7719C200.139 58.7663 200.287 58.7473 200.433 58.7151V58.2583C200.3 58.283 200.166 58.2974 200.032 58.3011C199.545 58.3011 199.545 57.8438 199.545 57.4145L199.546 53.1704ZM202.391 58.7726V57.3015H201.662V58.7726H202.391Z" fill="#B5B5B5"/>
</g>
<defs>
<clipPath id="clip0_21003_39759">
<rect width="211.971" height="62" fill="white"/>
</clipPath>
</defs>
</svg>
