<svg width="102" height="45" viewBox="0 0 102 45" fill="none" xmlns="http://www.w3.org/2000/svg">
<g clip-path="url(#clip0_21003_39736)">
<path fill-rule="evenodd" clip-rule="evenodd" d="M61.1987 9H52.4953H49.7737V10.0509C50.3218 10.1043 50.7686 10.1628 51.1345 10.2465C51.5656 10.3448 51.8842 10.4777 52.1195 10.6786C52.7878 11.2493 52.7878 12.306 52.7873 14.2045V14.3231L52.7869 27.5679C52.7869 27.7202 52.7873 27.8763 52.7882 28.0349C52.799 30.6831 52.8134 34.0769 49.213 34.0295C47.5772 34.0082 45.8978 32.8422 45.3767 30.7114H44.0635C44.6187 34.2818 46.5193 36.704 51.1241 36.704H51.1345H51.1448C55.0567 36.704 58.5478 34.9052 58.5415 28.7915V18.4869V14.3234V14.2049C58.5415 12.3081 58.541 11.2942 59.2093 10.7235C59.6453 10.3513 60.0062 10.1671 61.1987 10.0509V9ZM74.3027 9.00027H62.8777V9.99954V10.0512C64.0706 10.1673 64.4315 10.3516 64.8671 10.7239C65.4139 11.1908 65.5129 11.955 65.5309 13.2553L65.5304 13.4354C65.5291 13.7821 65.5277 14.1621 65.5345 14.5798V30.4217C65.5273 30.8536 65.5291 31.245 65.5304 31.6012L65.5309 31.7462C65.5129 33.0466 65.4139 33.8108 64.8671 34.2774C64.4311 34.6497 64.0706 34.8339 62.8777 34.95V35.0016V36.0006H74.3032H74.35H80.1415L81.9622 30.712H80.6212C79.2941 33.6176 77.2426 33.9571 75.371 33.9571C73.8406 33.9571 72.8222 33.8709 72.1 33.4028C71.5172 33.0298 71.2994 32.0454 71.2891 30.3775V14.6237V14.3237V14.2024C71.2886 12.3056 71.2886 11.25 71.9569 10.6797C72.3929 10.3074 73.1102 10.1677 74.3027 10.0516V9.00027ZM81.9158 9.00027H93.3413V10.0516C92.1484 10.1677 91.4311 10.3074 90.9955 10.6797C90.3272 11.2497 90.3277 12.3046 90.3277 14.1996V14.3237V14.6237V30.3775C90.338 32.0454 90.5558 33.0298 91.1381 33.4028C91.8608 33.8709 92.8787 33.9571 94.4096 33.9571C96.2812 33.9571 98.3327 33.6176 99.6598 30.712H101.001L99.1801 36.0006H93.3881H93.3413H81.9158V35.0016V34.95C83.1083 34.8339 83.4692 34.6497 83.9053 34.2774C84.452 33.8108 84.5506 33.0466 84.5686 31.7462L84.5681 31.6265C84.5668 31.2636 84.5654 30.8638 84.5726 30.4217V14.5798C84.5654 14.1274 84.5668 13.7189 84.5681 13.3494L84.5686 13.2553C84.551 11.955 84.452 11.1908 83.9053 10.7239C83.4697 10.3516 83.1083 10.1673 81.9158 10.0512V9.99954V9.00027Z" fill="#B5B5B5"/>
<path d="M40.1286 16.6658C39.6658 13.6683 38.7696 10.6078 37.3657 7.85606C36.2163 5.60277 34.6862 3.46455 32.6477 1.93765C31.1271 0.798002 29.2206 0.0473817 27.3081 0C26.1028 0.0302814 24.9001 0.339508 23.7948 0.848947C23.0676 0.513715 22.2985 0.270395 21.5136 0.131101C21.3249 0.097613 21.1355 0.0666197 20.9458 0.045957C20.7255 0.0220883 20.5041 0.00534378 20.2831 0C19.0782 0.0299252 17.8751 0.339864 16.7702 0.849307C15.6651 0.339864 14.4629 0.0299252 13.2585 0H13.2573C11.3453 0.0477377 9.43738 0.798007 7.91782 1.9373C5.87896 3.46419 4.34837 5.60277 3.19902 7.8557C1.7948 10.6074 0.898884 13.668 0.436151 16.6655C0.135019 18.6181 -0.0027318 20.5757 -0.000952057 22.4994C-0.00308774 24.4232 0.134307 26.3805 0.435795 28.3338C0.898528 31.331 1.7948 34.3915 3.19866 37.1433C4.34801 39.3965 5.8786 41.5347 7.9171 43.0617C9.43738 44.2013 11.3438 44.9519 13.2567 44.9996C14.4618 44.9694 15.6647 44.6594 16.7695 44.15C17.4963 44.4852 18.266 44.7282 19.0504 44.8678C19.2391 44.9014 19.4285 44.9323 19.6185 44.9526C19.8388 44.9765 20.0602 44.9932 20.2813 44.9989C21.4862 44.969 22.6892 44.6584 23.7938 44.1489C24.8991 44.6588 26.1011 44.9682 27.3055 44.9989H27.3067C29.2184 44.9512 31.1259 44.2002 32.6458 43.0605C34.6847 41.534 36.2149 39.3954 37.3642 37.1426C38.7685 34.3908 39.6645 31.3299 40.1276 28.3324C40.4286 26.3794 40.5664 24.4222 40.5646 22.4984C40.5674 20.5761 40.4301 18.6188 40.1286 16.6658ZM36.6292 25.4057C36.2747 30.5447 34.8845 35.7021 31.987 40.0078C30.7465 41.855 29.1536 43.6413 27.3048 44.937C26.5997 44.4453 25.9359 43.8836 25.3151 43.2754C25.4173 43.2041 25.5226 43.1364 25.6219 43.0617C27.6604 41.5347 29.1903 39.3961 30.3404 37.1433C31.7443 34.3919 32.6402 31.331 33.1033 28.3335C33.4044 26.3805 33.5425 24.4232 33.54 22.4994C33.5421 20.5757 33.4048 18.6185 33.1036 16.6655C32.6409 13.668 31.7446 10.6078 30.3411 7.8557C29.2793 5.77485 27.8872 3.798 26.0758 2.30424C25.4935 2.92768 24.9538 3.58996 24.4584 4.27004C24.632 4.50873 24.8008 4.74921 24.9641 4.99109C27.8605 9.29745 29.2509 14.455 29.6046 19.5939C29.6708 20.5572 29.7022 21.5276 29.7032 22.4991C29.7022 23.4713 29.6708 24.4414 29.6046 25.4047C29.2502 30.5436 27.8602 35.7014 24.9631 40.0071C24.6017 40.545 24.2102 41.0741 23.7948 41.5889C23.3211 42.1763 22.8157 42.7442 22.2747 43.2743C21.6991 43.8382 21.0847 44.3584 20.4365 44.8236C20.393 44.855 20.3326 44.9014 20.2824 44.938C20.2507 44.9159 20.2197 44.8906 20.1877 44.8678C19.9955 44.7318 19.8051 44.5918 19.6197 44.4461C19.1568 44.0816 18.7137 43.689 18.2908 43.275C18.2912 43.2753 18.2905 43.275 18.2908 43.275C18.393 43.2041 18.4983 43.1357 18.5973 43.0613C19.2052 42.6064 19.762 42.0922 20.2824 41.5415C20.6697 41.9504 21.0801 42.3363 21.5147 42.6943C22.097 42.0709 22.6363 41.4086 23.1317 40.7282C22.958 40.4898 22.789 40.2494 22.6267 40.0071C22.4483 39.7421 22.2924 39.4638 22.1254 39.1924C22.5601 38.529 22.9587 37.8429 23.3161 37.1426C24.72 34.3912 25.6163 31.3303 26.079 28.3328C26.3801 26.3798 26.5178 24.4225 26.5161 22.4987C26.5183 20.575 26.3801 18.6178 26.079 16.6648C25.6166 13.6673 24.7196 10.607 23.3161 7.85502C23.1535 7.53579 22.9804 7.2198 22.8022 6.90629C22.0539 8.27825 21.4438 9.7182 20.9458 11.1984C21.856 13.906 22.3839 16.7499 22.5796 19.5929C22.6459 20.5561 22.6715 21.5269 22.6726 22.4984H22.669C22.6683 23.4702 22.6455 24.4411 22.5793 25.404C22.3405 28.8756 21.6129 32.3498 20.2824 35.5707C19.7652 36.8229 19.1526 38.0331 18.4396 39.1913C18.2727 39.4631 18.1168 39.741 17.9385 40.0064C17.5768 40.5443 17.1853 41.0734 16.7702 41.5881C16.2961 42.1756 15.7907 42.7438 15.2492 43.2736C14.674 43.8375 14.0594 44.358 13.4112 44.8229C13.3595 44.8604 13.3097 44.9006 13.2573 44.9373C11.3975 43.6402 9.82429 41.8625 8.57702 40.0068C5.68033 35.7007 4.28965 30.5429 3.93583 25.404C3.86962 24.4407 3.83829 23.4702 3.83723 22.4984C3.83829 21.5262 3.86962 20.5561 3.93583 19.5929C4.29035 14.4543 5.68069 9.29642 8.57774 4.99037C9.82105 3.13929 11.4076 1.35875 13.2613 0.0623438C13.9661 0.554327 14.6296 1.11543 15.2499 1.72284C15.1479 1.79409 15.0424 1.86178 14.9431 1.93623C12.9046 3.46313 11.3744 5.60133 10.2251 7.85466C8.82088 10.6064 7.92493 13.6669 7.46183 16.6644C7.16074 18.6174 7.02259 20.5747 7.02511 22.4984C7.02331 24.4225 7.16038 26.3794 7.46147 28.3324C7.92421 31.3295 8.82088 34.3905 10.2243 37.1421C11.2862 39.223 12.6783 41.1999 14.4897 42.6936C15.072 42.0698 15.6117 41.4079 16.1075 40.7275C15.9337 40.4891 15.7647 40.2484 15.6017 40.0064C12.7053 35.7004 11.315 30.5429 10.9608 25.4037C10.8947 24.4407 10.8632 23.4699 10.8622 22.4984C10.8632 21.5262 10.8947 20.5561 10.9608 19.5929C11.3153 14.4539 12.7053 9.29642 15.6024 4.99037C15.9637 4.45244 16.3552 3.92377 16.7706 3.40898C17.2443 2.82152 17.7498 2.25401 18.2908 1.72355C18.8664 1.1596 19.4807 0.639472 20.129 0.174208C20.1759 0.140364 20.234 0.0958314 20.2834 0.0602063C20.3155 0.08265 20.3461 0.107589 20.3778 0.130388C20.5697 0.266476 20.7604 0.406127 20.9462 0.55219C21.4089 0.91628 21.8518 1.30887 22.2747 1.72319C22.1721 1.79409 22.0671 1.86213 21.9678 1.93623C21.3602 2.39081 20.8032 2.90523 20.2828 3.45564C19.8958 3.04667 19.4853 2.66156 19.0508 2.30317C18.4685 2.92661 17.9292 3.58888 17.4338 4.26932C17.6074 4.50765 17.7762 4.74813 17.9388 4.99001C18.1172 5.25506 18.273 5.53329 18.44 5.80478C18.0054 6.46812 17.6067 7.15424 17.2494 7.8543C15.8459 10.6059 14.9492 13.6665 14.4865 16.664C14.1854 18.617 14.0476 20.5743 14.0493 22.498C14.0472 24.4222 14.185 26.379 14.4862 28.332C14.9485 31.3291 15.8455 34.3901 17.249 37.1418C17.4117 37.461 17.5846 37.7766 17.763 38.0905C18.5112 36.7185 19.1213 35.2789 19.6192 33.7983C18.7091 31.0905 18.1812 28.2473 17.9854 25.404C17.9192 24.4407 17.8936 23.4699 17.8926 22.4984H17.8962C17.8968 21.5265 17.9196 20.5557 17.9858 19.5929C18.2249 16.1208 18.9522 12.647 20.2824 9.42606C20.7996 8.17349 21.4122 6.9633 22.1254 5.80514C22.2924 5.53329 22.448 5.25542 22.6267 4.99037C22.9883 4.45244 23.3798 3.92377 23.7948 3.40898C24.2687 2.82152 24.7744 2.25365 25.3158 1.72319C25.891 1.15924 26.5058 0.639116 27.154 0.173851C27.1988 0.141788 27.26 0.0969011 27.3103 0.0612759C29.1689 1.35875 30.7412 3.13502 31.9884 4.99001C34.8851 9.29606 36.2758 14.4539 36.6296 19.5929C36.6955 20.5561 36.7268 21.5265 36.7282 22.4984C36.7268 23.4724 36.6951 24.4421 36.6292 25.4057Z" fill="#B5B5B5"/>
</g>
<defs>
<clipPath id="clip0_21003_39736">
<rect width="101.025" height="45" fill="white"/>
</clipPath>
</defs>
</svg>
