<svg width="207" height="45" viewBox="0 0 207 45" fill="none" xmlns="http://www.w3.org/2000/svg">
<mask id="mask0_21097_27337" style="mask-type:luminance" maskUnits="userSpaceOnUse" x="20" y="4" width="166" height="36">
<path d="M185.603 4H20.5V40H185.603V4Z" fill="white"/>
</mask>
<g mask="url(#mask0_21097_27337)">
<mask id="mask1_21097_27337" style="mask-type:luminance" maskUnits="userSpaceOnUse" x="20" y="4" width="166" height="37">
<path d="M185.615 4.00317H20.5117V40.0032H185.615V4.00317Z" fill="white"/>
</mask>
<g mask="url(#mask1_21097_27337)">
<path d="M25.3878 22.9304C25.3888 20.1863 26.4674 17.5549 28.3868 15.6137C30.3061 13.6726 32.9093 12.5806 35.6246 12.5775V9.38193C35.6253 9.13795 35.575 8.89658 35.4768 8.67365C35.3787 8.45073 35.2349 8.25132 35.0552 8.08849C34.8753 7.92567 34.6636 7.80311 34.4335 7.72887C34.2035 7.65463 33.9607 7.6304 33.7207 7.65776C33.3201 7.69714 32.9225 7.76259 32.5303 7.85369C29.69 8.45484 27.078 9.86145 25.0003 11.9087C22.9226 13.9561 21.4651 16.5593 20.7987 19.4134C20.6707 19.966 20.6358 20.3167 20.535 20.8869C20.4938 21.1382 20.5074 21.3957 20.5749 21.6413C20.6423 21.8866 20.7621 22.1143 20.9257 22.3082C21.0893 22.5021 21.2928 22.6576 21.522 22.7637C21.7513 22.8698 22.0007 22.9241 22.2528 22.9226H25.3878" fill="#B5B5B5"/>
<path d="M71.3002 29.5993C71.4514 32.3621 73.115 34.1841 75.8583 34.5799C78.4272 34.9521 80.9322 34.5799 83.3886 33.7962C83.6982 33.6876 84.015 33.6018 84.3367 33.5395C85.0055 33.4279 85.5601 33.7355 85.6085 34.4016C85.6899 35.4653 85.6861 36.5341 85.5968 37.5972C85.5329 38.3221 84.9377 38.7081 84.2746 38.9177C81.8307 39.7129 79.267 40.0657 76.7017 39.9601C74.7106 39.8719 72.7486 39.6289 70.8854 38.8727C67.2017 37.3855 65.1252 34.5995 64.5784 30.6789C64.1907 27.9359 64.1558 25.1517 64.7006 22.4146C65.5788 18.0161 68.2428 15.2887 72.5546 14.2797C75.8099 13.5175 79.069 13.5469 82.2098 14.8244C87.206 16.8522 88.379 21.8328 86.9268 25.9237C86.0951 28.2749 84.1855 29.3231 81.8647 29.4621C79.0981 29.6268 76.3178 29.5661 73.5415 29.5993C72.8125 29.5993 72.0815 29.5993 71.3061 29.5993H71.3002ZM71.3061 24.6718C73.8498 24.6718 76.347 24.7011 78.8538 24.6581C79.8018 24.6404 80.2672 24.1485 80.4551 23.3727C80.6501 22.6158 80.5766 21.8139 80.2477 21.1061C79.9186 20.3982 79.3549 19.8291 78.654 19.4973C75.0693 17.7869 70.9842 20.6416 71.3061 24.6718Z" fill="#B5B5B5"/>
<path d="M61.5868 24.9168C61.5875 23.6696 61.4857 22.4244 61.2824 21.1942C60.72 18.0025 59.074 15.5926 55.9196 14.5777C52.3348 13.4236 47.7263 13.4139 44.3256 14.9147C44.2507 14.9361 44.1729 14.9467 44.095 14.946C44.0164 14.9464 43.938 14.9358 43.8624 14.9147C41.8692 14.035 39.4632 13.7764 37.0881 13.7587C32.0919 13.7215 28.1213 16.0511 26.9677 20.8632C26.6788 22.068 26.6129 23.6728 26.6013 24.9148C26.5664 29.1156 26.5896 33.6709 26.5896 37.8716C26.5896 38.381 26.7894 38.8695 27.1452 39.2301C27.501 39.5907 27.9838 39.7942 28.4877 39.7956H31.5781C31.8279 39.7963 32.0752 39.7468 32.306 39.6504C32.5368 39.554 32.7464 39.4124 32.9228 39.2337C33.0992 39.0551 33.2388 38.8429 33.334 38.6096C33.4289 38.3761 33.4772 38.126 33.4762 37.8736C33.4762 37.3936 33.4762 28.9745 33.5052 25.1109C33.5009 24.2407 33.5828 23.3724 33.7496 22.5186C34.1374 20.6652 35.1068 19.6797 36.9815 19.4877C38.03 19.3523 39.0952 19.506 40.0642 19.9324C40.1603 19.9835 40.242 20.0586 40.3013 20.1504C40.3607 20.2424 40.3959 20.3481 40.4035 20.4576C40.4035 20.4576 40.4869 36.7549 40.4869 37.8736C40.4867 38.126 40.5356 38.376 40.6309 38.6094C40.7263 38.8427 40.8661 39.0547 41.0425 39.2333C41.2189 39.412 41.4285 39.5539 41.6592 39.6507C41.8898 39.7475 42.1371 39.7974 42.3868 39.7976H45.7992C46.05 39.8006 46.2988 39.7528 46.5311 39.6572C46.7635 39.5614 46.9744 39.4198 47.1517 39.2406C47.3292 39.0614 47.4693 38.8481 47.564 38.6134C47.6586 38.3786 47.7059 38.1272 47.7031 37.8736C47.7031 37.0036 47.7244 23.2926 47.7244 20.4967C47.7244 20.1774 47.7884 19.9952 47.9648 19.9089C49.0007 19.5256 50.1079 19.3792 51.2064 19.4799C53.0735 19.6757 54.0488 20.6555 54.4384 22.5108C54.6071 23.3643 54.6889 24.2328 54.6827 25.1029C54.6827 25.9671 54.6962 28.2928 54.6962 28.2928V37.8658C54.6928 38.1208 54.74 38.3738 54.8348 38.61C54.9296 38.8463 55.0701 39.061 55.2483 39.2415C55.4264 39.422 55.6384 39.5648 55.872 39.6613C56.1055 39.7578 56.3557 39.8062 56.608 39.8036H59.71C59.9596 39.8031 60.2066 39.7528 60.437 39.6556C60.6672 39.5585 60.8764 39.4165 61.0524 39.2376C61.2283 39.0587 61.3676 38.8465 61.4623 38.6132C61.557 38.3797 61.6052 38.1299 61.6041 37.8776C61.6041 33.6769 61.6293 29.1216 61.5926 24.9208" fill="#B5B5B5"/>
<path d="M159.055 14.7864C159.794 15.0529 160.376 15.7779 160.374 16.9416C160.391 17.7802 160.359 18.6189 160.277 19.4535C160.186 20.2137 159.62 20.5448 158.863 20.3528C157.712 20.0608 156.58 19.6632 155.417 19.4378C153.952 19.1364 152.442 19.1437 150.98 19.4594C148.482 20.0198 146.909 21.6146 146.653 24.146C146.48 25.8169 146.472 27.5008 146.626 29.1735C146.918 32.1771 148.898 33.9953 151.916 34.2677C153.993 34.4531 156.084 34.1768 158.044 33.4584C159.788 32.8276 160.39 33.2488 160.382 35.118C160.382 35.8214 160.382 36.5268 160.318 37.2243C160.24 38.0765 159.714 38.5958 158.92 38.8505C156.386 39.6894 153.715 40.0281 151.054 39.8477C149.286 39.7361 147.55 39.4774 145.903 38.7975C142.824 37.528 140.837 35.2708 140.086 32.0497C139.306 28.6866 139.284 25.1895 140.021 21.8164C140.534 19.428 141.639 17.6078 143.239 16.3049C144.427 15.339 146.752 14.2712 148.226 14.0792C151.715 13.6246 155.594 13.5364 159.053 14.7884" fill="#B5B5B5"/>
<path d="M90.2134 5.91935C90.218 5.41224 90.4195 4.92723 90.7745 4.56881C91.1295 4.2104 91.6096 4.00726 92.1115 4.00317H95.2136C95.7154 4.00777 96.1956 4.21134 96.5506 4.57007C96.9056 4.9288 97.107 5.41402 97.1116 5.92131C97.1116 14.5755 97.1504 23.2904 97.1504 31.9446C97.1504 34.1351 97.3888 34.4074 99.5584 34.3644C101.001 34.3349 101.457 34.7856 101.462 36.2609C101.462 36.8741 101.477 37.4894 101.433 38.1006C101.369 38.9589 100.954 39.5055 100.134 39.6407C98.1953 39.9581 96.2392 40.1344 94.3022 39.6407C91.7954 39.0059 90.2967 37.1054 90.258 34.3507C90.1941 29.8561 90.2076 10.5688 90.2096 5.91544" fill="#B5B5B5"/>
<path d="M136.795 15.7847C136.803 15.5322 136.76 15.2807 136.668 15.0456C136.576 14.8106 136.438 14.597 136.262 14.4179C136.085 14.2389 135.874 14.0982 135.642 14.0043C135.41 13.9106 135.161 13.8657 134.911 13.8725H131.716C130.481 13.8725 129.868 14.9579 129.868 15.7867C129.868 16.3745 129.868 37.3193 129.868 37.8464C129.86 38.0991 129.903 38.3507 129.995 38.5858C130.087 38.821 130.226 39.0347 130.402 39.2138C130.579 39.3929 130.789 39.5337 131.022 39.6273C131.254 39.721 131.503 39.7657 131.753 39.7586H134.954C136.189 39.7586 136.799 38.6731 136.799 37.8444C136.799 37.2566 136.799 16.3118 136.799 15.7847" fill="#B5B5B5"/>
<path d="M185.331 37.8074C185.029 37.1884 184.686 36.5888 184.334 35.9972C182.38 32.6937 180.697 29.2218 178.463 26.2007C179.208 25.0035 179.959 23.8749 180.634 22.7013C181.781 20.7008 183.168 18.195 184.277 16.1788C185.052 14.778 184.547 13.9061 182.974 13.8826C181.915 13.8669 180.857 13.9061 179.798 13.8708C178.688 13.8336 177.96 14.3234 177.472 15.3148C176.6 17.039 175.428 19.2236 174.495 20.9145C173.664 22.4212 172.44 23.3126 170.643 23.2656C170.184 23.2539 170.047 23.1147 170.03 22.7209V20.8596C170.03 17.5425 170.03 7.85189 170.03 5.93178C170.039 5.67904 169.995 5.42737 169.904 5.1922C169.81 4.95703 169.672 4.74335 169.496 4.56427C169.319 4.38519 169.108 4.24449 168.876 4.15082C168.644 4.05714 168.394 4.01246 168.144 4.01952H164.949C163.714 4.01952 163.103 5.10497 163.103 5.93375V37.8604C163.094 38.1122 163.136 38.3632 163.226 38.5981C163.316 38.8331 163.453 39.0471 163.627 39.2271C163.802 39.4069 164.011 39.5493 164.241 39.6451C164.471 39.7409 164.72 39.7883 164.969 39.7844H168.217C169.145 39.7844 170.012 39.0457 170.012 37.8604C170.012 37.5645 170.039 32.3196 170.039 29.7627C170.039 29.1748 170.363 29.0886 170.521 29.073C171.996 28.9221 173.124 29.4276 173.991 30.6091C174.303 31.0387 174.588 31.4876 174.844 31.9531C176.037 34.1084 177.227 36.2636 178.397 38.4324C178.895 39.3533 179.602 39.8295 180.666 39.804C181.831 39.7687 182.98 39.804 184.137 39.804C185.393 39.804 185.904 38.9732 185.343 37.8251" fill="#B5B5B5"/>
<path d="M127.096 24.5196C127.088 23.2554 126.972 21.9942 126.749 20.7499C126.191 17.6679 124.392 15.4991 121.321 14.5703C120.196 14.2333 119.04 14.0107 117.872 13.9062C115.352 13.6593 112.856 14.0531 110.504 14.6448C110.394 14.4374 110.235 14.2606 110.04 14.1301C109.847 13.9995 109.624 13.9193 109.392 13.8963H106.096C104.904 13.8963 104.157 14.7859 104.157 15.7224V37.8545C104.149 38.1029 104.19 38.3503 104.278 38.5823C104.366 38.8143 104.5 39.0261 104.67 39.2052C104.84 39.3844 105.044 39.5273 105.27 39.6253C105.496 39.7235 105.74 39.7749 105.985 39.7767H109.299C109.792 39.7627 110.26 39.553 110.601 39.1928C110.942 38.8327 111.129 38.3511 111.121 37.8527C111.121 37.8527 111.121 22.2195 111.14 20.7088C111.136 20.5612 111.17 20.4152 111.238 20.2845C111.306 20.1538 111.406 20.043 111.528 19.9623C111.833 19.787 112.159 19.6508 112.497 19.5567C113.392 19.2511 115.512 18.7475 117.209 19.4275C117.74 19.6365 118.22 19.9558 118.621 20.3645C119.022 20.7731 119.333 21.2623 119.536 21.8001C119.924 22.8367 120.128 23.9344 120.138 25.0427C120.138 25.9323 120.154 37.8467 120.154 37.8467C120.154 38.9381 121.057 39.7767 121.884 39.7767H125.18C125.432 39.7784 125.683 39.7299 125.917 39.6336C126.152 39.5373 126.365 39.3955 126.545 39.2158C126.725 39.0362 126.868 38.8225 126.967 38.5869C127.065 38.3513 127.116 38.0984 127.118 37.8428C127.118 37.8428 127.118 24.9644 127.118 24.5196" fill="#B5B5B5"/>
</g>
</g>
</svg>
